<svg width="406" height="306" viewBox="0 0 406 306" fill="none" xmlns="http://www.w3.org/2000/svg">
<path d="M314.356 138.678V261.25H88.0411V138.678L201.203 70.2572L314.356 138.678Z" fill="#F1F2F2"/>
<path d="M314.356 261.757H88.0107C87.8761 261.757 87.747 261.704 87.6518 261.609C87.5566 261.513 87.5032 261.384 87.5032 261.25V138.678C87.5037 138.59 87.5274 138.503 87.5719 138.426C87.6164 138.35 87.6802 138.286 87.7569 138.242L200.97 69.8208C201.049 69.7712 201.141 69.745 201.234 69.745C201.327 69.745 201.419 69.7712 201.498 69.8208L314.65 138.242C314.725 138.287 314.787 138.352 314.829 138.428C314.872 138.505 314.894 138.591 314.894 138.678V261.25C314.894 261.319 314.88 261.388 314.852 261.451C314.825 261.515 314.785 261.572 314.734 261.62C314.684 261.667 314.624 261.704 314.559 261.728C314.494 261.751 314.425 261.761 314.356 261.757ZM88.5486 260.742H313.879V138.942L201.214 70.8256L88.5486 138.942V260.742Z" fill="#231F20"/>
<path d="M250.35 87.6442C250.35 87.6442 255.577 77.8799 254.897 71.4042C254.217 64.9285 247.792 63.7714 247.792 63.7714C247.792 63.7714 232.293 55.7021 228.7 50.1095L228.822 58.2903C226.007 57.3186 223.411 55.8048 221.179 53.8345C221.179 53.8345 218.763 58.0061 221.371 61.721C221.371 61.721 216.804 62.6143 213.8 59.5896C213.8 59.5896 215.332 71.871 226.162 73.4544C233.298 74.4491 242.585 88.1212 250.35 87.6442Z" fill="white"/>
<path d="M249.954 88.1618C245.671 88.1618 241.073 84.3048 236.627 80.5798C232.811 77.3825 229.217 74.3578 226.112 73.9112C215.028 72.2872 213.333 59.7012 213.312 59.5997C213.301 59.4952 213.322 59.3896 213.372 59.2975C213.423 59.2054 213.501 59.1314 213.596 59.0857C213.691 59.04 213.798 59.0249 213.901 59.0424C214.005 59.0599 214.101 59.1093 214.175 59.1836C215.034 59.946 216.043 60.5205 217.138 60.8701C218.232 61.2197 219.387 61.3367 220.529 61.2136C218.499 57.4885 220.661 53.6518 220.762 53.4894C220.798 53.424 220.847 53.3673 220.907 53.3235C220.967 53.2797 221.036 53.2499 221.109 53.2363C221.182 53.2227 221.257 53.2256 221.329 53.2448C221.401 53.264 221.467 53.299 221.524 53.3473C223.554 55.0834 225.85 56.4817 228.324 57.4885L228.213 50.0283C228.209 49.919 228.241 49.8115 228.306 49.7231C228.37 49.6347 228.463 49.5706 228.568 49.5411C228.673 49.5072 228.787 49.5087 228.891 49.5453C228.996 49.582 229.085 49.6518 229.146 49.7441C232.516 54.9815 246.909 62.6244 247.985 63.1928C248.766 63.3654 254.724 64.8574 255.404 71.3128C256.095 77.9205 251.009 87.4919 250.796 87.8979C250.755 87.9736 250.695 88.0376 250.622 88.0838C250.55 88.1299 250.466 88.1568 250.38 88.1618H249.954ZM214.591 60.838C215.363 64.0048 218.063 71.6985 226.264 72.9064C229.644 73.4037 233.369 76.5096 237.277 79.7982C241.59 83.4116 246.036 87.1468 249.954 87.1468H250.035C250.837 85.5736 254.988 77.1288 254.389 71.4042C253.76 65.3142 247.964 64.2992 247.721 64.218L247.579 64.1672C246.98 63.8627 234.018 57.0622 229.248 51.5914L229.349 58.2295C229.35 58.3073 229.333 58.3842 229.299 58.4545C229.266 58.5248 229.217 58.5866 229.157 58.6355C229.094 58.6845 229.022 58.7182 228.944 58.7341C228.867 58.75 228.786 58.7475 228.71 58.7268C226.024 57.8097 223.537 56.3906 221.382 54.545C220.86 55.6191 220.625 56.8097 220.7 58.0013C220.775 59.193 221.156 60.345 221.808 61.3455C221.854 61.4172 221.882 61.4986 221.891 61.5831C221.9 61.6677 221.889 61.7531 221.859 61.8327C221.826 61.9107 221.775 61.9794 221.71 62.0326C221.644 62.0857 221.566 62.1217 221.483 62.1372C219.104 62.5487 216.657 62.0873 214.591 60.838V60.838Z" fill="#231F20"/>
<path d="M242.311 188.728C242.311 188.728 267.29 158.471 271.421 135.359C275.552 112.248 261.119 106.939 256.084 105.214C251.05 103.488 224.812 92.6075 211.638 102.108C198.463 111.608 185.339 170.874 185.339 170.874L242.311 188.728Z" fill="#F2994A"/>
<path d="M152.25 218.843L179.117 185.348C179.117 185.348 197.813 161.506 187.369 158.958C187.369 158.958 172.875 160.846 149.195 169.108C142.161 171.554 130.072 199.487 122.439 218.843H152.25Z" fill="#231F20"/>
<path d="M152.25 219.351H122.389C122.306 219.351 122.225 219.33 122.152 219.291C122.08 219.252 122.018 219.196 121.973 219.127C121.935 219.055 121.916 218.975 121.916 218.894C121.916 218.813 121.935 218.732 121.973 218.66C130.438 197.183 142.009 171.057 149.032 168.611C172.479 160.491 187.156 158.461 187.308 158.461H187.491C188.229 158.592 188.92 158.916 189.493 159.401C190.065 159.886 190.498 160.514 190.749 161.222C193.154 168.124 180.081 184.912 179.523 185.582L152.646 219.077C152.608 219.151 152.552 219.216 152.482 219.263C152.413 219.311 152.333 219.341 152.25 219.351V219.351ZM123.191 218.336H152.006L178.64 184.993C178.772 184.83 191.926 167.941 189.714 161.567C189.525 161.034 189.198 160.56 188.766 160.195C188.335 159.829 187.814 159.584 187.257 159.486C185.978 159.658 171.647 161.79 149.286 169.575C144.13 171.372 134.873 188.677 123.14 218.336H123.191Z" fill="#231F20"/>
<path d="M197.245 218.843L204.066 202.228C204.066 202.228 220.712 207.211 231.816 203.029C239.631 200.086 242.017 189.987 245.549 181.806C245.549 181.806 198.859 170.742 188.435 166.236C188.435 166.236 187.785 166.236 175.839 178.781C170.5 184.414 166.247 201.578 163.182 218.843H197.245Z" fill="#231F20"/>
<path d="M197.245 219.351H163.182C163.106 219.351 163.032 219.335 162.963 219.304C162.895 219.272 162.834 219.226 162.786 219.168C162.74 219.111 162.707 219.046 162.688 218.976C162.669 218.907 162.664 218.834 162.674 218.762C166.572 196.838 170.885 183.237 175.473 178.436C187.572 165.687 188.222 165.718 188.455 165.728C188.516 165.719 188.577 165.719 188.638 165.728C198.94 170.255 245.204 181.207 245.63 181.318C245.701 181.336 245.768 181.369 245.826 181.414C245.884 181.46 245.931 181.517 245.965 181.582C245.995 181.649 246.011 181.722 246.011 181.796C246.011 181.869 245.995 181.942 245.965 182.009C245.305 183.531 244.676 185.155 244.067 186.718C241.337 193.752 238.505 201.03 231.938 203.506C221.686 207.363 207.091 203.608 204.309 202.837L197.661 219.077C197.622 219.155 197.563 219.221 197.49 219.269C197.417 219.318 197.332 219.346 197.245 219.351V219.351ZM163.75 218.336H196.91L203.609 202.035C203.655 201.918 203.743 201.823 203.856 201.768C203.969 201.713 204.098 201.704 204.218 201.74C204.391 201.74 220.834 206.622 231.623 202.552C237.713 200.248 240.504 193.184 243.164 186.312C243.702 184.922 244.26 183.491 244.838 182.12C239.449 180.831 198.646 171.026 188.475 166.763C187.897 167.2 185.501 169.301 176.194 179.096C171.86 183.714 167.566 197.264 163.78 218.336H163.75Z" fill="#231F20"/>
<path d="M211.638 102.108C211.638 102.108 200.473 114.288 194.241 120.378C188.008 126.468 175.788 134.354 175.788 134.354C175.788 134.354 139.349 137.288 138.964 137.866C138.578 138.445 138.964 150.544 138.964 150.544C138.964 150.544 174.57 157.375 181.066 156.197C187.562 155.02 202.888 144.718 202.888 144.718L211.638 102.108Z" fill="#F2994A"/>
<path d="M227.147 96.0585L226.02 107.518C226.02 107.518 228.05 114.095 235.785 112.918C243.519 111.74 244.92 106.442 244.92 106.442L249.934 84.051C249.934 84.051 245.295 80.7016 240.92 67.6081C240.92 67.6081 224.762 64.5631 224.203 70.7952C224.203 70.7952 221.016 81.9601 221.25 87.8573C221.463 93.592 227.045 95.9671 227.147 96.0585Z" fill="white"/>
<path d="M234.008 113.567C232.161 113.581 230.354 113.021 228.838 111.964C227.322 110.908 226.171 109.408 225.543 107.67C225.528 107.607 225.528 107.541 225.543 107.477L226.619 96.3123C222.996 94.3432 220.884 91.2373 220.752 87.8269C220.519 81.8993 223.594 71.0692 223.726 70.5719C223.777 70.0582 223.938 69.5617 224.199 69.1165C224.46 68.6714 224.815 68.2883 225.239 67.9938C229.299 64.8879 240.555 66.9788 241.022 66.9788C241.112 66.9967 241.196 67.038 241.266 67.0986C241.335 67.1591 241.388 67.2368 241.418 67.3239C245.66 80.0418 250.198 83.4827 250.248 83.5639C250.326 83.6231 250.385 83.7032 250.42 83.7948C250.454 83.8864 250.461 83.9858 250.441 84.0815L245.427 106.472C245.356 106.726 243.803 112.126 235.876 113.344C235.259 113.462 234.635 113.537 234.008 113.567ZM226.538 107.477C226.822 108.269 228.954 113.466 235.673 112.43C242.95 111.314 244.382 106.34 244.392 106.34L249.335 84.2845C248.269 83.3609 244.26 79.3415 240.494 68.0445C238.708 67.74 229.207 66.2784 225.797 68.8667C225.476 69.0894 225.208 69.3807 225.013 69.7194C224.818 70.0582 224.701 70.436 224.67 70.8256C224.67 71.0286 221.493 81.9906 221.717 87.8167C221.889 92.1406 225.239 94.5056 227.218 95.5206C227.305 95.5622 227.386 95.6132 227.462 95.6728C227.517 95.7257 227.56 95.7908 227.587 95.863C227.613 95.9352 227.622 96.0125 227.614 96.089L226.538 107.477Z" fill="#231F20"/>
<path d="M244.371 84.4367C244.72 83.4249 245.385 82.5526 246.27 81.95C247.598 80.9744 249.259 80.5656 250.888 80.8132C252.766 81.341 253.72 83.6349 253.314 85.5431C253.062 86.6869 252.524 87.748 251.75 88.6268C250.976 89.5056 249.991 90.1734 248.888 90.5673C248.129 90.7918 247.333 90.8644 246.546 90.7808C245.759 90.6972 244.996 90.4591 244.3 90.0802" fill="white"/>
<path d="M247.193 91.3185C246.098 91.3237 245.019 91.0513 244.057 90.5268C243.998 90.4948 243.946 90.4515 243.904 90.3995C243.862 90.3475 243.831 90.2878 243.812 90.2237C243.793 90.1596 243.787 90.0924 243.795 90.026C243.802 89.9596 243.822 89.8952 243.854 89.8366C243.886 89.7779 243.929 89.7261 243.981 89.6842C244.033 89.6423 244.093 89.611 244.157 89.5921C244.221 89.5733 244.288 89.5672 244.354 89.5743C244.421 89.5814 244.485 89.6016 244.544 89.6336C245.831 90.3305 247.341 90.491 248.746 90.0802C249.759 89.7118 250.662 89.0934 251.372 88.2824C252.082 87.4715 252.575 86.4943 252.806 85.4416C253.141 83.8481 252.38 81.7572 250.776 81.3106C250.043 81.1947 249.295 81.2248 248.574 81.3989C247.853 81.5731 247.173 81.888 246.574 82.3256C245.78 82.8601 245.184 83.6413 244.879 84.5484C244.836 84.683 244.741 84.795 244.615 84.8597C244.49 84.9244 244.344 84.9366 244.209 84.8935C244.074 84.8504 243.962 84.7557 243.898 84.63C243.833 84.5044 243.821 84.3582 243.864 84.2236C244.245 83.1076 244.979 82.1458 245.955 81.4831C246.676 80.95 247.497 80.5682 248.369 80.3606C249.241 80.153 250.146 80.124 251.03 80.2753C253.242 80.8843 254.257 83.5233 253.821 85.5939C253.561 86.8432 252.983 88.0045 252.144 88.9662C251.305 89.9278 250.233 90.6575 249.03 91.085C248.433 91.2532 247.814 91.3318 247.193 91.3185V91.3185Z" fill="#231F20"/>
<path d="M233.054 78.8238C233.054 78.8238 228.406 84.2135 229.218 85.3503C230.03 86.4871 232.719 86.1217 232.719 86.1217" fill="white"/>
<path d="M231.775 86.69C231.236 86.7485 230.69 86.6878 230.176 86.5125C229.662 86.3371 229.193 86.0513 228.801 85.675C227.898 84.4063 230.831 80.6 232.668 78.57C232.76 78.4871 232.88 78.4406 233.003 78.4394C233.127 78.4382 233.247 78.4823 233.341 78.5634C233.434 78.6445 233.495 78.757 233.511 78.8797C233.528 79.0025 233.499 79.127 233.43 79.2298C231.197 81.8282 229.42 84.589 229.634 85.1473C230.09 85.7766 231.735 85.8172 232.679 85.6954C232.813 85.6779 232.949 85.7145 233.057 85.7973C233.164 85.8801 233.235 86.0023 233.252 86.1369C233.27 86.2715 233.233 86.4075 233.15 86.5151C233.067 86.6226 232.945 86.6929 232.811 86.7104C232.465 86.7232 232.12 86.7164 231.775 86.69V86.69Z" fill="#231F20"/>
<path d="M241.499 78.1412C241.621 77.3887 241.289 76.7089 240.758 76.6229C240.227 76.537 239.697 77.0774 239.576 77.83C239.454 78.5826 239.786 79.2624 240.317 79.3483C240.848 79.4343 241.378 78.8938 241.499 78.1412Z" fill="#231F20"/>
<path d="M228.799 78.6287C229.337 78.61 229.752 77.9772 229.725 77.2153C229.699 76.4533 229.241 75.8508 228.703 75.8695C228.165 75.8882 227.751 76.521 227.777 77.2829C227.804 78.0448 228.261 78.6474 228.799 78.6287Z" fill="#231F20"/>
<path d="M227.147 96.0585C227.147 96.0585 234.11 98.4032 238.545 96.4138C238.545 96.4138 232.963 105.549 226.365 103.915L227.147 96.0585Z" fill="#231F20"/>
<path d="M228.01 104.625C227.418 104.628 226.828 104.556 226.254 104.412C226.137 104.381 226.034 104.311 225.964 104.213C225.893 104.114 225.859 103.995 225.868 103.874L226.639 96.0179C226.646 95.9412 226.67 95.867 226.708 95.8003C226.747 95.7337 226.8 95.6763 226.863 95.6322C226.931 95.5997 227.005 95.5829 227.081 95.5829C227.156 95.5829 227.231 95.5997 227.299 95.6322C227.37 95.6322 234.14 97.8855 238.342 95.9976C238.442 95.9553 238.552 95.9453 238.658 95.9689C238.764 95.9926 238.859 96.0488 238.931 96.1296C238.995 96.2165 239.029 96.3213 239.029 96.429C239.029 96.5366 238.995 96.6415 238.931 96.7284C238.769 97.0329 234.059 104.625 228.01 104.625ZM226.924 103.519C231.481 104.321 235.551 99.6821 237.256 97.4288C233.612 98.322 229.187 97.2359 227.583 96.769L226.924 103.519Z" fill="#231F20"/>
<path d="M227.238 80.8437H226.903L223.158 80.5493C222.085 80.4638 221.091 79.9562 220.392 79.1378C219.694 78.3195 219.349 77.2574 219.433 76.1848L219.676 73.1398C219.689 73.0069 219.754 72.8844 219.857 72.7989C219.959 72.7134 220.091 72.6717 220.225 72.6831L231.044 73.5356C231.179 73.5502 231.302 73.6156 231.39 73.7183C231.434 73.7678 231.467 73.8257 231.488 73.8885C231.509 73.9513 231.517 74.0178 231.511 74.0837L231.268 77.1287C231.184 78.1465 230.719 79.095 229.966 79.7854C229.214 80.4758 228.229 80.8573 227.208 80.8538L227.238 80.8437ZM220.651 73.7387L220.448 76.2356C220.386 77.0387 220.645 77.8337 221.168 78.4462C221.692 79.0588 222.436 79.4391 223.239 79.5038L226.984 79.7982C227.382 79.835 227.783 79.791 228.163 79.6689C228.544 79.5468 228.895 79.3491 229.197 79.0877C229.803 78.5757 230.186 77.8474 230.263 77.0577L230.456 74.5608L220.651 73.7387Z" fill="#231F20"/>
<path d="M240.697 81.95H240.362L236.617 81.6455C235.544 81.56 234.55 81.0524 233.851 80.234C233.153 79.4157 232.808 78.3536 232.892 77.281L233.135 74.236C233.141 74.1693 233.159 74.1042 233.189 74.0446C233.22 73.985 233.261 73.9319 233.312 73.8885C233.363 73.8451 233.422 73.8122 233.486 73.7917C233.55 73.7712 233.617 73.7635 233.684 73.7691L244.503 74.6318C244.569 74.637 244.633 74.655 244.691 74.6848C244.749 74.7147 244.801 74.7558 244.844 74.8058C244.886 74.8558 244.918 74.9137 244.938 74.9762C244.958 75.0386 244.966 75.1044 244.96 75.1698L244.727 78.2148C244.645 79.2343 244.181 80.1854 243.429 80.8779C242.676 81.5704 241.69 81.9533 240.667 81.95H240.697ZM240.443 80.935C241.247 80.9972 242.043 80.738 242.656 80.2143C243.243 79.6938 243.607 78.9665 243.671 78.1843L243.874 75.6874L234.1 74.845L233.907 77.3317C233.845 78.1349 234.104 78.9298 234.627 79.5424C235.151 80.155 235.895 80.5353 236.698 80.6L240.443 80.935Z" fill="#231F20"/>
<path d="M233.45 76.6923L230.811 76.4792C230.744 76.474 230.679 76.4558 230.62 76.4254C230.56 76.395 230.507 76.3532 230.464 76.3022C230.42 76.2513 230.387 76.1923 230.367 76.1286C230.346 76.0649 230.339 75.9977 230.344 75.9311C230.359 75.7983 230.425 75.6763 230.526 75.5896C230.628 75.503 230.759 75.4581 230.892 75.4642L233.531 75.6773C233.666 75.6773 233.795 75.7308 233.89 75.826C233.985 75.9211 234.039 76.0502 234.039 76.1848C234.039 76.3194 233.985 76.4485 233.89 76.5437C233.795 76.6388 233.666 76.6923 233.531 76.6923H233.45Z" fill="#231F20"/>
<path d="M231.816 94.5969C228.639 94.5969 226.132 92.1406 225.127 89.2783C225.1 89.1983 225.093 89.1128 225.107 89.0295C225.121 88.9462 225.156 88.8677 225.208 88.8013C225.253 88.731 225.317 88.6747 225.392 88.6388C225.468 88.6029 225.552 88.5889 225.634 88.5983C229.966 88.825 234.297 88.1332 238.342 86.5683C238.423 86.5331 238.51 86.5192 238.598 86.5281C238.685 86.537 238.768 86.5683 238.84 86.619C238.913 86.6692 238.971 86.7381 239.008 86.8184C239.046 86.8987 239.061 86.9875 239.053 87.0758C239.053 87.3092 238.525 92.8816 233.623 94.2823C233.039 94.4742 232.43 94.5802 231.816 94.5969ZM226.345 89.6437C227.411 91.8869 229.877 94.3533 233.318 93.3586C236.485 92.4552 237.54 89.39 237.875 87.8878C234.17 89.1658 230.263 89.7607 226.345 89.6437Z" fill="#231F20"/>
<path d="M269.087 114.613C274.994 117.384 284.586 182.303 274.162 186.678C257.922 193.448 213.962 170.438 213.962 170.438L222.61 153.416C222.61 153.416 252.471 162.308 254.542 156.238C256.612 150.168 246.361 116.785 249.852 113.151C253.344 109.517 269.087 114.613 269.087 114.613Z" fill="#F2994A"/>
<path d="M224.244 160.288C219.163 159.252 214.211 157.662 209.476 155.548C205.842 153.812 202.706 152.147 198.656 151.275C193.631 150.183 188.452 149.991 183.36 150.706C183.154 150.722 182.955 150.789 182.781 150.899C182.182 151.406 183.065 152.279 183.796 152.513C185.773 153.094 187.826 153.374 189.886 153.345C184.677 153.825 179.556 155.003 174.661 156.847C174.103 157.06 173.443 157.456 173.535 158.034C173.626 158.613 174.6 158.785 175.29 158.674L187.369 156.644C184.282 157.011 181.277 157.889 178.478 159.242C178.082 159.435 177.625 159.719 177.605 160.166C177.605 160.937 178.681 161.079 179.442 160.927C183.148 160.179 186.782 159.109 190.302 157.73L182.294 161.029C182.257 161.165 182.248 161.308 182.268 161.448C182.287 161.588 182.334 161.723 182.405 161.845C182.477 161.967 182.572 162.073 182.686 162.158C182.799 162.242 182.928 162.304 183.065 162.338C183.625 162.446 184.204 162.4 184.74 162.206L193.297 159.912L187.805 161.942C186.943 162.257 185.897 162.846 186.039 163.759C186.202 164.835 187.694 164.916 188.77 164.774C193.025 164.139 197.339 163.979 201.63 164.297C203.203 164.388 204.776 164.124 206.278 164.581C208.44 165.241 210.623 166.804 212.632 167.86C215.779 169.504 218.915 171.179 222.052 172.853" fill="white"/>
<path d="M222.092 173.239C222.015 173.242 221.938 173.224 221.869 173.188C218.743 171.517 215.603 169.852 212.45 168.195C211.82 167.87 211.171 167.484 210.511 167.088C209.151 166.216 207.697 165.501 206.177 164.957C205.218 164.723 204.229 164.637 203.244 164.703C202.706 164.703 202.178 164.703 201.64 164.703C197.383 164.385 193.103 164.545 188.881 165.18C187.978 165.371 187.037 165.238 186.222 164.804C186.058 164.686 185.92 164.534 185.817 164.36C185.714 164.185 185.648 163.991 185.623 163.789C185.583 163.509 185.617 163.222 185.722 162.959C185.827 162.695 186 162.463 186.222 162.287L184.903 162.642C184.281 162.868 183.608 162.911 182.964 162.764C182.744 162.693 182.541 162.578 182.366 162.426C182.192 162.275 182.05 162.089 181.949 161.881C181.878 161.721 181.841 161.549 181.841 161.374C181.841 161.199 181.878 161.026 181.949 160.866C181.167 161.049 180.396 161.221 179.614 161.384C179.271 161.47 178.913 161.484 178.563 161.425C178.214 161.365 177.88 161.234 177.584 161.039C177.457 160.929 177.357 160.791 177.291 160.636C177.226 160.481 177.198 160.313 177.209 160.146C177.209 159.354 178.041 158.968 178.335 158.826L178.924 158.552L175.422 159.141C174.805 159.277 174.159 159.183 173.606 158.877C173.481 158.788 173.375 158.674 173.295 158.544C173.215 158.413 173.162 158.267 173.139 158.116C173.078 157.71 173.139 156.948 174.56 156.431C178.148 155.053 181.864 154.033 185.654 153.386C185.001 153.29 184.354 153.161 183.715 153C183.36 152.902 183.035 152.72 182.766 152.469C182.497 152.218 182.294 151.906 182.172 151.559C182.139 151.382 182.154 151.199 182.214 151.03C182.275 150.86 182.379 150.71 182.517 150.594C182.753 150.425 183.03 150.323 183.319 150.3C188.465 149.57 193.699 149.763 198.778 150.868C202.131 151.691 205.367 152.932 208.41 154.563L209.709 155.182C214.398 157.249 219.294 158.808 224.315 159.831C224.434 159.86 224.538 159.935 224.602 160.039C224.667 160.144 224.688 160.269 224.66 160.389C224.647 160.449 224.622 160.506 224.587 160.556C224.551 160.605 224.506 160.648 224.454 160.68C224.402 160.712 224.344 160.734 224.283 160.743C224.223 160.752 224.161 160.749 224.102 160.734C218.993 159.683 214.011 158.087 209.242 155.974L207.943 155.345C204.963 153.752 201.795 152.539 198.514 151.731C193.543 150.643 188.417 150.454 183.38 151.173C183.262 151.172 183.146 151.204 183.045 151.264C183.045 151.549 183.482 151.934 183.908 152.066C185.839 152.63 187.844 152.904 189.856 152.878V152.878C189.966 152.895 190.068 152.95 190.141 153.035C190.214 153.12 190.254 153.228 190.254 153.34C190.254 153.452 190.214 153.56 190.141 153.645C190.068 153.73 189.966 153.785 189.856 153.802C184.696 154.286 179.623 155.456 174.773 157.283C174.367 157.436 173.9 157.71 173.941 157.963C173.944 157.994 173.954 158.023 173.97 158.049C173.985 158.076 174.007 158.098 174.032 158.116C174.385 158.275 174.782 158.311 175.159 158.217L184.507 156.634C185.415 156.432 186.333 156.276 187.257 156.167C187.378 156.155 187.498 156.189 187.594 156.263C187.69 156.336 187.755 156.443 187.775 156.563C187.793 156.684 187.762 156.807 187.69 156.905C187.618 157.004 187.51 157.07 187.389 157.09L184.679 157.547C182.574 158.007 180.53 158.712 178.589 159.648C178.092 159.892 177.98 160.075 177.98 160.176C177.977 160.204 177.981 160.233 177.991 160.26C178.002 160.286 178.019 160.31 178.041 160.328C178.414 160.518 178.844 160.565 179.249 160.46C182.934 159.718 186.548 158.655 190.049 157.283C190.162 157.239 190.288 157.241 190.399 157.289C190.511 157.336 190.6 157.425 190.647 157.537C190.692 157.652 190.69 157.779 190.643 157.892C190.596 158.006 190.506 158.097 190.394 158.146L182.619 161.353C182.605 161.396 182.605 161.442 182.619 161.485C182.709 161.671 182.87 161.814 183.065 161.881C183.542 161.968 184.034 161.922 184.486 161.749L193.043 159.445C193.154 159.427 193.268 159.45 193.363 159.509C193.459 159.569 193.53 159.66 193.563 159.768C193.597 159.875 193.59 159.991 193.545 160.094C193.5 160.197 193.419 160.28 193.317 160.328L187.836 162.358C187.359 162.531 186.263 163.008 186.364 163.668C186.374 163.745 186.4 163.819 186.44 163.885C186.48 163.952 186.534 164.009 186.598 164.053C187.206 164.35 187.899 164.425 188.557 164.266C192.848 163.618 197.2 163.455 201.528 163.779C202.036 163.779 202.543 163.779 203.061 163.779C204.142 163.707 205.228 163.806 206.278 164.074C207.871 164.63 209.391 165.376 210.805 166.296C211.455 166.672 212.094 167.048 212.714 167.372C215.86 169.023 219 170.688 222.133 172.366C222.188 172.394 222.236 172.433 222.276 172.48C222.315 172.527 222.345 172.581 222.363 172.64C222.381 172.699 222.387 172.76 222.381 172.821C222.374 172.883 222.355 172.942 222.326 172.995C222.283 173.104 222.199 173.192 222.092 173.239Z" fill="#231F20"/>
<path d="M213.495 108.086C211.394 109.314 200.128 134.649 195.225 146.737Z" fill="white"/>
<path d="M195.256 147.204C195.179 147.205 195.104 147.186 195.036 147.151C194.968 147.115 194.91 147.064 194.867 147.001C194.824 146.938 194.797 146.865 194.789 146.789C194.78 146.713 194.791 146.636 194.819 146.565C199.255 135.572 210.866 109.081 213.262 107.68C213.314 107.646 213.373 107.623 213.435 107.612C213.497 107.601 213.561 107.602 213.622 107.617C213.683 107.631 213.741 107.657 213.792 107.695C213.843 107.732 213.886 107.779 213.918 107.833C213.95 107.887 213.971 107.947 213.979 108.009C213.988 108.072 213.983 108.135 213.967 108.196C213.95 108.256 213.921 108.313 213.882 108.362C213.843 108.411 213.794 108.452 213.739 108.482C211.942 109.497 201.224 133.177 195.682 146.91C195.649 146.996 195.591 147.071 195.514 147.123C195.438 147.176 195.348 147.204 195.256 147.204Z" fill="#231F20"/>
<path d="M133.168 156.796L132.589 161.952L198.412 190.301L198.615 184.881L133.168 156.796Z" fill="white"/>
<path d="M198.412 190.809C198.345 190.824 198.276 190.824 198.209 190.809L132.386 162.46C132.285 162.417 132.201 162.342 132.146 162.247C132.091 162.152 132.069 162.041 132.082 161.932L132.66 156.776C132.668 156.697 132.696 156.622 132.74 156.556C132.784 156.49 132.844 156.437 132.914 156.4C132.985 156.363 133.063 156.343 133.143 156.343C133.222 156.343 133.301 156.363 133.371 156.4L198.818 184.465C198.913 184.505 198.993 184.573 199.048 184.66C199.102 184.747 199.129 184.849 199.123 184.952L198.92 190.372C198.915 190.456 198.891 190.537 198.848 190.61C198.806 190.682 198.747 190.743 198.676 190.788C198.592 190.819 198.5 190.826 198.412 190.809V190.809ZM133.127 161.638L197.925 189.54L198.098 185.196L133.594 157.517L133.127 161.638Z" fill="#231F20"/>
<path d="M133.168 156.796C133.168 156.796 152.341 147.6 152.829 147.864C153.316 148.128 221.128 175.269 221.128 175.269L198.615 184.881L133.168 156.796Z" fill="white"/>
<path d="M198.615 185.389C198.548 185.403 198.479 185.403 198.412 185.389L132.965 157.263C132.876 157.224 132.8 157.16 132.746 157.079C132.692 156.998 132.662 156.904 132.66 156.806C132.657 156.709 132.682 156.613 132.733 156.53C132.783 156.447 132.857 156.381 132.945 156.339C152.362 147.022 152.788 147.255 153.072 147.417C154.087 147.874 220.651 174.528 221.321 174.822C221.415 174.858 221.496 174.922 221.552 175.006C221.609 175.09 221.638 175.189 221.635 175.289C221.637 175.389 221.609 175.486 221.555 175.57C221.5 175.653 221.422 175.718 221.331 175.756L198.818 185.368C198.753 185.389 198.683 185.396 198.615 185.389V185.389ZM134.396 156.766L198.615 184.333L219.798 175.33C209.323 171.128 156.097 149.823 152.747 148.422C151.428 148.727 141.278 153.477 134.396 156.766Z" fill="#231F20"/>
<path d="M198.412 190.301L220.285 180.121L221.128 175.269L198.615 184.881L198.412 190.301Z" fill="white"/>
<path d="M198.412 190.809C198.311 190.813 198.211 190.785 198.128 190.728C198.054 190.68 197.994 190.614 197.955 190.535C197.915 190.456 197.898 190.369 197.905 190.281L198.108 184.861C198.113 184.766 198.145 184.674 198.198 184.596C198.252 184.517 198.326 184.454 198.412 184.414L220.935 174.802C221.018 174.766 221.109 174.753 221.199 174.766C221.289 174.778 221.373 174.815 221.443 174.873C221.517 174.928 221.574 175.003 221.606 175.09C221.639 175.176 221.645 175.27 221.625 175.36L220.793 180.202C220.777 180.282 220.743 180.357 220.694 180.423C220.645 180.488 220.581 180.541 220.509 180.578L198.625 190.728C198.561 190.77 198.488 190.798 198.412 190.809V190.809ZM199.113 185.226L198.94 189.54L219.829 179.816L220.458 176.142L199.113 185.226Z" fill="#231F20"/>
<path d="M133.168 156.796L131.818 109.162L200.726 140.8L198.615 184.881L133.168 156.796Z" fill="white"/>
<path d="M198.615 185.389C198.548 185.403 198.479 185.403 198.412 185.389L132.965 157.263C132.875 157.225 132.798 157.162 132.744 157.08C132.69 156.999 132.661 156.904 132.66 156.806L131.3 109.172C131.299 109.086 131.319 109 131.36 108.924C131.401 108.847 131.461 108.783 131.534 108.736C131.608 108.694 131.692 108.672 131.777 108.672C131.863 108.672 131.947 108.694 132.021 108.736L200.97 140.343C201.062 140.382 201.14 140.45 201.193 140.535C201.245 140.62 201.27 140.72 201.264 140.82L199.153 184.901C199.15 184.983 199.127 185.062 199.086 185.133C199.045 185.204 198.988 185.264 198.92 185.307C198.831 185.37 198.723 185.399 198.615 185.389V185.389ZM133.655 156.451L198.138 184.13L200.168 141.114L132.346 109.964L133.655 156.451Z" fill="#231F20"/>
<path d="M235.307 182.435C235.237 182.449 235.165 182.449 235.094 182.435L221.158 176.01C221.051 175.961 220.964 175.877 220.913 175.772C220.861 175.666 220.847 175.546 220.874 175.432L225.086 157.811C225.113 157.684 225.189 157.572 225.297 157.5C225.405 157.428 225.537 157.401 225.665 157.425L252.908 161.79L252.014 118.612C252.012 118.545 252.022 118.478 252.046 118.415C252.07 118.353 252.106 118.295 252.153 118.247C252.199 118.199 252.255 118.16 252.317 118.134C252.378 118.108 252.445 118.094 252.512 118.094V118.094C252.644 118.097 252.77 118.15 252.864 118.242C252.959 118.334 253.014 118.459 253.019 118.591L253.923 162.379C253.923 162.453 253.907 162.526 253.876 162.593C253.844 162.659 253.798 162.718 253.74 162.764C253.685 162.813 253.621 162.85 253.55 162.871C253.48 162.892 253.406 162.897 253.334 162.886L225.929 158.501L221.92 175.259L235.48 181.42C235.541 181.447 235.595 181.486 235.64 181.535C235.685 181.584 235.72 181.641 235.743 181.704C235.766 181.766 235.776 181.832 235.772 181.899C235.769 181.965 235.752 182.03 235.724 182.09C235.695 182.181 235.64 182.263 235.566 182.324C235.493 182.385 235.403 182.424 235.307 182.435V182.435Z" fill="#231F20"/>
<path d="M114.533 218.843C112.168 217.057 109.336 216.113 107.336 218.843H114.533Z" fill="white"/>
<path d="M114.533 219.31H107.336C107.251 219.309 107.167 219.285 107.093 219.24C107.02 219.196 106.96 219.132 106.92 219.056C106.875 218.983 106.852 218.899 106.852 218.813C106.852 218.727 106.875 218.642 106.92 218.569C107.245 218.08 107.667 217.663 108.159 217.344C108.651 217.024 109.204 216.809 109.782 216.712C111.254 216.488 112.939 217.087 114.776 218.478C114.853 218.537 114.909 218.619 114.938 218.711C114.967 218.804 114.967 218.903 114.939 218.995C114.907 219.08 114.852 219.155 114.78 219.21C114.709 219.266 114.623 219.301 114.533 219.31ZM108.372 218.386H112.99C112.085 217.808 111.016 217.54 109.945 217.625C109.357 217.72 108.81 217.984 108.372 218.386V218.386Z" fill="#231F20"/>
<path d="M166.389 203.598H166.308C166.176 203.575 166.059 203.502 165.981 203.394C165.903 203.286 165.871 203.151 165.892 203.019C165.973 202.512 167.922 190.596 171.687 184.546C171.762 184.444 171.874 184.373 171.998 184.349C172.123 184.324 172.253 184.347 172.361 184.414C172.47 184.48 172.549 184.585 172.584 184.707C172.619 184.829 172.607 184.96 172.55 185.074C168.926 190.951 166.907 203.06 166.886 203.182C166.867 203.299 166.806 203.406 166.715 203.482C166.623 203.558 166.508 203.599 166.389 203.598V203.598Z" fill="white"/>
<path d="M229.116 115.13L230.151 118.602L217.21 145.256L220.894 154.786L228.974 147.895L232.293 118.581L234.008 116.815L232.242 113.862L229.116 115.13Z" fill="#231F20"/>
<path d="M314.356 138.678V261.25H88.0411V138.678L201.203 215.737L314.356 138.678Z" fill="white"/>
<path d="M314.356 261.757H88.0107C87.8761 261.757 87.747 261.704 87.6518 261.609C87.5566 261.513 87.5032 261.384 87.5032 261.25V138.678C87.5028 138.586 87.5282 138.495 87.5766 138.416C87.625 138.337 87.6945 138.273 87.7772 138.232C87.8571 138.184 87.9483 138.159 88.0411 138.159C88.134 138.159 88.2251 138.184 88.305 138.232L201.173 215.108L314.041 138.232C314.119 138.184 314.209 138.159 314.3 138.159C314.391 138.159 314.481 138.184 314.559 138.232C314.642 138.272 314.712 138.336 314.761 138.415C314.809 138.494 314.834 138.586 314.833 138.678V261.25C314.833 261.379 314.784 261.504 314.695 261.598C314.606 261.693 314.485 261.749 314.356 261.757ZM88.5486 260.742H313.879V139.632L201.518 216.163C201.433 216.218 201.335 216.246 201.234 216.246C201.133 216.246 201.035 216.218 200.95 216.163L88.5486 139.632V260.742Z" fill="#231F20"/>
<path d="M201.203 216.245C201.103 216.244 201.005 216.216 200.919 216.163L87.7569 139.095C87.6473 139.019 87.572 138.902 87.5474 138.771C87.5227 138.64 87.5505 138.505 87.625 138.394C87.7013 138.282 87.8184 138.205 87.9512 138.178C88.0841 138.152 88.222 138.178 88.3355 138.252L201.203 215.128L314.071 138.252C314.183 138.179 314.32 138.152 314.451 138.179C314.582 138.206 314.697 138.283 314.772 138.394C314.81 138.449 314.837 138.51 314.851 138.575C314.865 138.64 314.866 138.707 314.854 138.772C314.841 138.837 314.816 138.9 314.779 138.955C314.743 139.01 314.695 139.058 314.64 139.095L201.488 216.163C201.402 216.215 201.304 216.243 201.203 216.245V216.245Z" fill="#231F20"/>
<path d="M88.0411 261.25L201.193 190.717L314.356 261.25H88.0411Z" fill="white"/>
<path d="M314.356 261.757H88.0107C87.9009 261.757 87.794 261.722 87.7062 261.656C87.6183 261.59 87.5542 261.497 87.5235 261.392C87.4922 261.286 87.4972 261.172 87.5376 261.069C87.5781 260.966 87.6517 260.88 87.7468 260.823L200.97 190.291C201.051 190.242 201.144 190.216 201.239 190.216C201.334 190.216 201.427 190.242 201.508 190.291L314.65 260.823C314.745 260.88 314.819 260.966 314.859 261.069C314.9 261.172 314.905 261.286 314.873 261.392C314.841 261.502 314.773 261.599 314.679 261.665C314.584 261.732 314.471 261.764 314.356 261.757ZM89.8174 260.742H312.62L201.244 191.316L89.8174 260.742Z" fill="#231F20"/>
<path d="M322.06 200.362L258.8 216.534L267.764 251.601L331.025 235.429L322.06 200.362Z" fill="#F2994A"/>
<path d="M267.767 252.115C267.675 252.112 267.585 252.087 267.503 252.044C267.391 251.97 267.308 251.858 267.27 251.729L258.307 216.661C258.276 216.53 258.297 216.393 258.365 216.277C258.433 216.162 258.544 216.077 258.673 216.042L321.938 199.873C322.062 199.827 322.199 199.827 322.323 199.873C322.382 199.906 322.433 199.951 322.473 200.006C322.513 200.06 322.542 200.122 322.557 200.187L331.519 235.256C331.536 235.32 331.54 235.388 331.531 235.454C331.521 235.52 331.499 235.584 331.465 235.641C331.431 235.699 331.386 235.749 331.333 235.789C331.279 235.829 331.219 235.858 331.154 235.875L267.889 252.044L267.767 252.115ZM259.424 216.945L268.133 251.029L330.413 235.103L321.755 200.979L259.424 216.945Z" fill="#231F20"/>
<path d="M267.767 251.607L294.37 223.847L331.032 235.428L267.767 251.607Z" fill="#F2994A"/>
<path d="M267.767 252.115C267.679 252.114 267.592 252.091 267.515 252.046C267.439 252.001 267.375 251.938 267.331 251.861C267.271 251.767 267.245 251.655 267.258 251.544C267.271 251.433 267.322 251.33 267.402 251.252L294.005 223.502C294.07 223.433 294.153 223.384 294.244 223.359C294.335 223.333 294.432 223.334 294.523 223.36L331.184 234.951C331.29 234.984 331.381 235.051 331.445 235.14C331.509 235.23 331.542 235.338 331.54 235.448C331.535 235.559 331.494 235.664 331.425 235.75C331.356 235.836 331.261 235.897 331.154 235.925L267.889 252.094L267.767 252.115ZM294.523 224.426L269.361 250.673L329.185 235.377L294.523 224.426Z" fill="#231F20"/>
<path d="M258.805 216.539L295.913 229.876L322.07 200.36L258.805 216.539Z" fill="#F2994A"/>
<path d="M295.913 230.384C295.856 230.394 295.798 230.394 295.741 230.384L258.632 217.047C258.531 217.01 258.444 216.942 258.383 216.853C258.323 216.763 258.293 216.657 258.297 216.549C258.302 216.44 258.34 216.335 258.408 216.25C258.475 216.164 258.568 216.102 258.673 216.072L321.938 199.903C322.042 199.878 322.153 199.885 322.253 199.925C322.353 199.965 322.438 200.036 322.496 200.126C322.555 200.22 322.582 200.33 322.573 200.439C322.563 200.549 322.519 200.653 322.445 200.735L296.289 230.242C296.24 230.291 296.181 230.329 296.116 230.353C296.051 230.378 295.982 230.388 295.913 230.384V230.384ZM260.53 216.62L295.761 229.277L320.588 201.263L260.53 216.62Z" fill="#231F20"/>
<path d="M355.58 167.439L319.478 176.366L324.427 196.378L360.529 187.451L355.58 167.439Z" fill="#F2994A"/>
<path d="M324.425 196.878C324.311 196.878 324.2 196.84 324.111 196.77C324.021 196.7 323.956 196.603 323.927 196.493L318.984 176.487C318.953 176.357 318.974 176.219 319.042 176.104C319.11 175.988 319.22 175.904 319.35 175.868L355.453 166.946C355.517 166.928 355.584 166.923 355.65 166.932C355.716 166.941 355.78 166.963 355.837 166.997C355.894 167.031 355.943 167.077 355.982 167.131C356.021 167.185 356.048 167.246 356.062 167.312L361.015 187.317C361.031 187.382 361.034 187.45 361.023 187.516C361.013 187.582 360.99 187.646 360.954 187.703C360.921 187.761 360.876 187.812 360.822 187.853C360.767 187.893 360.705 187.921 360.64 187.936L324.546 196.858L324.425 196.878ZM320.09 176.731L324.8 195.752L359.909 187.074L355.25 168.052L320.09 176.731Z" fill="#231F20"/>
<path d="M324.424 196.371L339.7 180.679L360.518 187.439L324.424 196.371Z" fill="#F2994A"/>
<path d="M324.424 196.878C324.335 196.88 324.248 196.857 324.171 196.813C324.094 196.768 324.031 196.703 323.988 196.625C323.932 196.529 323.908 196.418 323.921 196.308C323.934 196.198 323.982 196.096 324.059 196.016L339.335 180.334C339.4 180.265 339.483 180.216 339.574 180.193C339.666 180.169 339.763 180.172 339.852 180.202L360.68 186.962C360.815 186.962 360.944 187.015 361.039 187.111C361.134 187.206 361.188 187.335 361.188 187.469C361.188 187.604 361.134 187.733 361.039 187.828C360.944 187.923 360.815 187.977 360.68 187.977L324.587 196.899L324.424 196.878ZM339.842 181.268L326.028 195.478L358.671 187.408L339.842 181.268Z" fill="#231F20"/>
<path d="M319.471 176.365L340.543 184.12L355.575 167.433L319.471 176.365Z" fill="#F2994A"/>
<path d="M340.553 184.627C340.492 184.637 340.431 184.637 340.37 184.627L319.299 176.873C319.197 176.834 319.111 176.764 319.053 176.672C318.994 176.581 318.967 176.474 318.974 176.365C318.977 176.257 319.016 176.153 319.083 176.069C319.151 175.985 319.245 175.925 319.349 175.898L355.453 166.977C355.558 166.949 355.668 166.956 355.769 166.997C355.869 167.037 355.954 167.108 356.011 167.2C356.067 167.295 356.091 167.405 356.08 167.514C356.069 167.624 356.024 167.727 355.95 167.809L340.928 184.465C340.829 184.566 340.694 184.624 340.553 184.627V184.627ZM321.207 176.507L340.401 183.612L354.093 168.387L321.207 176.507Z" fill="#231F20"/>
<path d="M301.79 162.392L272.202 175.64L279.543 192.037L309.132 178.789L301.79 162.392Z" fill="#F2994A"/>
<path d="M279.551 192.585C279.453 192.588 279.356 192.561 279.273 192.509C279.19 192.456 279.125 192.38 279.084 192.291L271.746 175.888C271.717 175.828 271.701 175.762 271.699 175.695C271.696 175.629 271.707 175.562 271.73 175.499C271.754 175.437 271.79 175.38 271.837 175.331C271.883 175.283 271.938 175.245 272 175.218L301.577 161.973C301.701 161.917 301.842 161.913 301.969 161.96C302.096 162.008 302.2 162.103 302.257 162.226L309.575 178.578C309.626 178.702 309.626 178.84 309.575 178.964C309.524 179.087 309.43 179.188 309.311 179.248L279.724 192.443C279.677 192.502 279.619 192.551 279.551 192.585V192.585ZM272.873 175.939L279.805 191.408L308.459 178.578L301.536 163.109L272.873 175.939Z" fill="#231F20"/>
<path d="M279.551 192.027L290.219 176.213L309.128 178.781L279.551 192.027Z" fill="#F2994A"/>
<path d="M279.551 192.585C279.457 192.59 279.364 192.568 279.282 192.522C279.199 192.476 279.132 192.407 279.088 192.324C279.043 192.241 279.023 192.147 279.029 192.053C279.036 191.959 279.069 191.869 279.125 191.793L289.803 175.98C289.855 175.901 289.928 175.838 290.015 175.798C290.101 175.759 290.196 175.744 290.29 175.756L309.199 178.334C309.309 178.349 309.41 178.398 309.489 178.475C309.568 178.552 309.619 178.652 309.636 178.761C309.651 178.87 309.63 178.981 309.577 179.078C309.524 179.175 309.442 179.252 309.342 179.299L279.754 192.494C279.694 192.538 279.625 192.57 279.551 192.585V192.585ZM290.463 176.802L280.962 190.89L307.301 179.096L290.463 176.802Z" fill="#231F20"/>
<path d="M272.203 175.635L291.488 179.025L301.79 162.389L272.203 175.635Z" fill="#F2994A"/>
<path d="M291.478 179.532H291.396L272.111 176.142C272.006 176.123 271.909 176.07 271.836 175.991C271.763 175.913 271.717 175.812 271.705 175.706C271.691 175.598 271.712 175.488 271.765 175.393C271.818 175.298 271.901 175.223 272 175.178L301.577 161.932C301.678 161.887 301.79 161.876 301.898 161.9C302.006 161.923 302.103 161.981 302.176 162.064C302.241 162.15 302.276 162.255 302.276 162.363C302.276 162.471 302.241 162.577 302.176 162.663L291.873 179.309C291.829 179.374 291.77 179.428 291.701 179.466C291.633 179.505 291.556 179.527 291.478 179.532V179.532ZM273.918 175.472L291.234 178.517L300.491 163.576L273.918 175.472Z" fill="#231F20"/>
<path d="M171.972 44.7503H112.452C110.586 44.7503 108.797 45.4913 107.478 46.8105C106.159 48.1296 105.418 49.9187 105.418 51.7842V82.2342C105.418 83.1579 105.6 84.0726 105.953 84.926C106.307 85.7794 106.825 86.5548 107.478 87.208C108.131 87.8611 108.907 88.3792 109.76 88.7327C110.614 89.0862 111.528 89.2682 112.452 89.2682H165.445L171.758 100.088L171.84 89.2682H172.012C172.936 89.2682 173.85 89.0862 174.704 88.7327C175.557 88.3792 176.333 87.8611 176.986 87.208C177.639 86.5548 178.157 85.7794 178.511 84.926C178.864 84.0726 179.046 83.1579 179.046 82.2342V51.7842C179.046 50.8571 178.863 49.9391 178.507 49.083C178.151 48.227 177.629 47.4497 176.972 46.796C176.314 46.1423 175.534 45.6251 174.676 45.274C173.818 44.9229 172.899 44.7449 171.972 44.7503Z" fill="white"/>
<path d="M171.718 100.596C171.629 100.595 171.542 100.571 171.466 100.527C171.389 100.482 171.326 100.419 171.281 100.342L165.12 89.7757H112.452C110.453 89.773 108.536 88.9776 107.122 87.5639C105.708 86.1501 104.913 84.2335 104.91 82.2342V51.7842C104.913 49.7849 105.708 47.8683 107.122 46.4546C108.536 45.0408 110.453 44.2454 112.452 44.2428H171.971C173.972 44.2428 175.89 45.0373 177.304 46.4516C178.718 47.8659 179.513 49.7841 179.513 51.7842V82.2342C179.512 84.1759 178.763 86.0424 177.42 87.4453C176.078 88.8482 174.246 89.6793 172.306 89.7655L172.225 100.098C172.226 100.208 172.189 100.316 172.121 100.402C172.053 100.489 171.957 100.55 171.85 100.575C171.808 100.593 171.763 100.6 171.718 100.596V100.596ZM112.452 45.2578C110.722 45.2604 109.063 45.9489 107.84 47.1723C106.617 48.3956 105.928 50.0541 105.925 51.7842V82.2342C105.928 83.9643 106.617 85.6228 107.84 86.8461C109.063 88.0695 110.722 88.758 112.452 88.7607H165.445C165.535 88.7594 165.624 88.7822 165.703 88.8269C165.781 88.8715 165.846 88.9362 165.892 89.0144L171.271 98.2408L171.332 89.2682C171.332 89.1336 171.385 89.0045 171.481 88.9093C171.576 88.8141 171.705 88.7607 171.84 88.7607H172.012C173.742 88.758 175.401 88.0695 176.624 86.8461C177.847 85.6228 178.536 83.9643 178.538 82.2342V51.7842C178.538 50.0533 177.851 48.3933 176.627 47.1693C175.403 45.9454 173.743 45.2578 172.012 45.2578H112.452Z" fill="#231F20"/>
<path d="M132.407 68.6028L159.081 52.2816L136.477 61.6906L132.407 68.6028Z" fill="#231F20"/>
<path d="M132.407 69.1102C132.273 69.1083 132.145 69.0536 132.051 68.958C131.972 68.8777 131.922 68.7738 131.907 68.6621C131.892 68.5503 131.915 68.4368 131.97 68.3388L136.03 61.4369C136.085 61.3406 136.171 61.2656 136.274 61.2237L158.878 51.8045C158.996 51.7552 159.129 51.7526 159.249 51.797C159.369 51.8414 159.468 51.9297 159.526 52.044C159.584 52.1584 159.596 52.2904 159.561 52.4135C159.525 52.5366 159.444 52.6418 159.335 52.7078L132.671 69.029C132.592 69.08 132.5 69.1081 132.407 69.1102ZM136.832 62.0966L133.878 67.1006L153.265 55.2656L136.832 62.0966Z" fill="#231F20"/>
<path d="M136.477 61.6906L145.206 66.1465L159.081 52.2816L136.477 61.6906Z" fill="#F2994A"/>
<path d="M145.203 66.8167C145.133 66.8318 145.061 66.8318 144.99 66.8167L136.271 62.3609C136.177 62.3175 136.1 62.2441 136.053 62.1523C136.005 62.0604 135.989 61.9553 136.008 61.8534C136.01 61.7652 136.038 61.6796 136.088 61.6073C136.139 61.5351 136.21 61.4794 136.292 61.4474L158.896 52.0282C158.995 51.9921 159.103 51.9906 159.203 52.0239C159.303 52.0572 159.389 52.1233 159.446 52.2115C159.504 52.2997 159.53 52.4048 159.52 52.5098C159.511 52.6147 159.466 52.7132 159.393 52.7894L145.528 66.6746C145.442 66.762 145.326 66.8128 145.203 66.8167V66.8167ZM137.581 61.9346L145.143 65.7814L157.12 53.8146L137.581 61.9346Z" fill="#231F20"/>
<path d="M159.081 52.2816L130.367 59.1328L123.84 55.4078L159.081 52.2816Z" fill="#F2994A"/>
<path d="M130.367 59.62C130.288 59.6202 130.211 59.5991 130.143 59.5591L123.607 55.8239C123.522 55.7748 123.455 55.7004 123.415 55.6112C123.375 55.522 123.364 55.4224 123.383 55.3266C123.405 55.2292 123.457 55.1412 123.532 55.0755C123.606 55.0098 123.7 54.9697 123.8 54.9612L159.04 51.835C159.156 51.8301 159.269 51.8661 159.36 51.9367C159.451 52.0073 159.514 52.1079 159.538 52.2207C159.557 52.3358 159.532 52.4539 159.468 52.5516C159.404 52.6493 159.306 52.7195 159.193 52.7485L130.478 59.62H130.367ZM125.353 55.7529L130.428 58.6659L152.758 53.3169L125.353 55.7529Z" fill="#231F20"/>
<path d="M130.367 59.1328L132.407 68.6028L136.477 61.6906L159.081 52.2816L130.367 59.1328Z" fill="#F2994A"/>
<path d="M132.407 69.0595H132.336C132.243 69.0445 132.158 69.0014 132.09 68.936C132.023 68.8706 131.978 68.7862 131.96 68.6941L129.93 59.2343C129.917 59.1757 129.915 59.1149 129.925 59.0556C129.935 58.9962 129.957 58.9394 129.989 58.8885C130.021 58.8376 130.063 58.7935 130.112 58.7588C130.161 58.724 130.217 58.6994 130.275 58.6862L158.98 51.8248C159.094 51.8003 159.213 51.8175 159.315 51.8734C159.418 51.9293 159.497 52.0201 159.538 52.1293C159.573 52.2413 159.565 52.3622 159.516 52.469C159.468 52.5757 159.381 52.6607 159.274 52.7079L136.802 62.056L132.813 68.8362C132.77 68.9049 132.71 68.9614 132.639 69.0005C132.568 69.0395 132.488 69.0599 132.407 69.0595V69.0595ZM130.935 59.4779L132.63 67.3442L136.101 61.4572C136.152 61.3699 136.231 61.3021 136.325 61.2643L153.58 54.068L130.935 59.4779Z" fill="#231F20"/>
<path d="M132.444 77.1036C131.394 76.8017 130.629 76.4319 130.149 75.994C129.673 75.5518 129.434 75.0077 129.434 74.3615C129.434 73.6302 129.726 73.0266 130.308 72.5504C130.895 72.07 131.656 71.8298 132.591 71.8298C133.229 71.8298 133.796 71.9531 134.294 72.1997C134.795 72.4463 135.182 72.7864 135.454 73.22C135.731 73.6536 135.869 74.1276 135.869 74.6421H134.638C134.638 74.0809 134.46 73.6409 134.102 73.322C133.745 72.9989 133.242 72.8374 132.591 72.8374C131.987 72.8374 131.515 72.9713 131.175 73.2391C130.84 73.5027 130.672 73.8704 130.672 74.3423C130.672 74.7207 130.831 75.0417 131.15 75.3053C131.473 75.5646 132.019 75.8027 132.789 76.0195C133.562 76.2363 134.166 76.4765 134.6 76.7401C135.038 76.9994 135.361 77.3034 135.569 77.652C135.782 78.0006 135.888 78.4108 135.888 78.8827C135.888 79.6352 135.595 80.2389 135.008 80.6938C134.421 81.1444 133.637 81.3697 132.655 81.3697C132.017 81.3697 131.422 81.2486 130.869 81.0063C130.317 80.7597 129.889 80.4238 129.588 79.9987C129.29 79.5736 129.141 79.091 129.141 78.5511H130.372C130.372 79.1123 130.578 79.5566 130.99 79.8839C131.407 80.207 131.962 80.3686 132.655 80.3686C133.301 80.3686 133.796 80.2368 134.141 79.9732C134.485 79.7096 134.657 79.3504 134.657 78.8955C134.657 78.4406 134.498 78.0899 134.179 77.8433C133.86 77.5925 133.282 77.3459 132.444 77.1036ZM140.141 81.3697C139.206 81.3697 138.445 81.0636 137.858 80.4515C137.272 79.835 136.978 79.0124 136.978 77.9836V77.7668C136.978 77.0823 137.108 76.4722 137.367 75.9366C137.631 75.3967 137.997 74.9758 138.464 74.6739C138.936 74.3678 139.446 74.2148 139.995 74.2148C140.892 74.2148 141.589 74.5103 142.086 75.1012C142.584 75.6921 142.832 76.5381 142.832 77.6392V78.1302H138.158C138.175 78.8105 138.373 79.361 138.751 79.7819C139.134 80.1985 139.618 80.4068 140.205 80.4068C140.622 80.4068 140.975 80.3218 141.264 80.1517C141.553 79.9817 141.806 79.7564 142.023 79.4758L142.743 80.037C142.165 80.9255 141.298 81.3697 140.141 81.3697ZM139.995 75.1841C139.519 75.1841 139.119 75.3584 138.796 75.707C138.473 76.0514 138.273 76.536 138.196 77.161H141.653V77.0717C141.619 76.4722 141.457 76.0088 141.168 75.6815C140.879 75.3499 140.488 75.1841 139.995 75.1841ZM145.319 74.3423L145.358 75.2096C145.885 74.5464 146.574 74.2148 147.424 74.2148C148.882 74.2148 149.618 75.0374 149.63 76.6827V81.2422H148.451V76.6763C148.446 76.1789 148.332 75.8112 148.106 75.5731C147.885 75.335 147.539 75.216 147.067 75.216C146.684 75.216 146.348 75.318 146.059 75.5221C145.77 75.7261 145.545 75.994 145.383 76.3256V81.2422H144.204V74.3423H145.319ZM153.01 72.6716V74.3423H154.298V75.2542H153.01V79.5332C153.01 79.8095 153.067 80.0178 153.182 80.1581C153.297 80.2942 153.493 80.3622 153.769 80.3622C153.905 80.3622 154.092 80.3367 154.33 80.2857V81.2422C154.02 81.3272 153.718 81.3697 153.425 81.3697C152.897 81.3697 152.5 81.2103 152.232 80.8915C151.964 80.5726 151.83 80.1199 151.83 79.5332V75.2542H150.574V74.3423H151.83V72.6716H153.01Z" fill="black"/>
<path d="M167.881 249.273C167.746 249.273 167.617 249.219 167.522 249.124C167.427 249.029 167.374 248.9 167.374 248.765C167.374 248.631 167.427 248.502 167.522 248.406C167.617 248.311 167.746 248.258 167.881 248.258C169.231 248.258 170.581 248.258 171.941 248.156C172.076 248.156 172.205 248.21 172.3 248.305C172.395 248.4 172.449 248.529 172.449 248.664C172.449 248.798 172.395 248.927 172.3 249.023C172.205 249.118 172.076 249.171 171.941 249.171C170.581 249.222 169.221 249.252 167.881 249.273ZM163.821 249.273C162.471 249.273 161.111 249.273 159.761 249.171C159.628 249.166 159.503 249.109 159.412 249.012C159.321 248.915 159.271 248.787 159.274 248.654C159.282 248.519 159.341 248.392 159.439 248.3C159.537 248.207 159.667 248.156 159.802 248.156C161.152 248.207 162.491 248.237 163.862 248.258C163.996 248.258 164.125 248.311 164.22 248.406C164.316 248.502 164.369 248.631 164.369 248.765C164.369 248.9 164.316 249.029 164.22 249.124C164.125 249.219 163.996 249.273 163.862 249.273H163.821ZM176.001 248.989C175.873 248.989 175.749 248.939 175.656 248.85C175.564 248.761 175.509 248.64 175.504 248.512C175.5 248.445 175.509 248.378 175.53 248.315C175.552 248.252 175.586 248.193 175.631 248.143C175.675 248.093 175.729 248.053 175.789 248.024C175.849 247.994 175.914 247.977 175.981 247.974C177.321 247.903 178.67 247.811 180.041 247.7C180.107 247.694 180.173 247.702 180.237 247.722C180.3 247.743 180.358 247.776 180.408 247.82C180.458 247.863 180.499 247.916 180.529 247.976C180.558 248.035 180.575 248.1 180.579 248.166C180.584 248.233 180.577 248.3 180.556 248.364C180.536 248.428 180.503 248.487 180.459 248.538C180.416 248.589 180.363 248.63 180.303 248.661C180.244 248.691 180.178 248.709 180.112 248.715C178.762 248.816 177.412 248.907 176.052 248.989H176.001ZM155.701 248.989C154.341 248.907 152.991 248.816 151.641 248.704C151.574 248.699 151.509 248.681 151.45 248.65C151.39 248.62 151.337 248.578 151.294 248.527C151.251 248.476 151.218 248.417 151.197 248.354C151.177 248.29 151.169 248.223 151.174 248.156C151.179 248.09 151.198 248.025 151.228 247.965C151.259 247.906 151.301 247.853 151.351 247.809C151.402 247.766 151.461 247.733 151.525 247.712C151.589 247.692 151.656 247.684 151.722 247.689C153.072 247.801 154.412 247.892 155.782 247.974C155.917 247.974 156.046 248.027 156.141 248.122C156.236 248.217 156.29 248.346 156.29 248.481C156.29 248.616 156.236 248.745 156.141 248.84C156.046 248.935 155.917 248.989 155.782 248.989H155.701ZM184.121 248.349C183.996 248.345 183.876 248.297 183.783 248.214C183.691 248.13 183.63 248.016 183.614 247.892C183.607 247.826 183.613 247.758 183.632 247.694C183.651 247.63 183.683 247.57 183.725 247.518C183.768 247.466 183.82 247.423 183.879 247.392C183.939 247.36 184.004 247.34 184.07 247.334C185.424 247.192 186.777 247.04 188.13 246.877C188.197 246.869 188.265 246.873 188.33 246.891C188.394 246.908 188.455 246.938 188.508 246.979C188.562 247.02 188.606 247.071 188.64 247.13C188.673 247.188 188.695 247.252 188.704 247.319C188.712 247.386 188.708 247.453 188.69 247.518C188.673 247.583 188.643 247.644 188.602 247.697C188.561 247.75 188.51 247.795 188.451 247.828C188.393 247.862 188.329 247.884 188.262 247.892C186.909 248.068 185.556 248.221 184.202 248.349H184.121ZM147.652 248.349H147.601C146.251 248.197 144.901 248.034 143.541 247.862C143.407 247.844 143.285 247.774 143.202 247.667C143.119 247.559 143.082 247.423 143.1 247.288C143.117 247.154 143.188 247.032 143.295 246.949C143.403 246.866 143.539 246.829 143.673 246.847C145.003 247.019 146.343 247.182 147.733 247.324C147.868 247.332 147.994 247.393 148.083 247.494C148.173 247.595 148.218 247.727 148.21 247.862C148.202 247.997 148.141 248.122 148.04 248.212C147.939 248.301 147.807 248.347 147.672 248.339L147.652 248.349ZM192.18 247.334C192.06 247.333 191.944 247.29 191.853 247.212C191.762 247.134 191.702 247.026 191.683 246.908C191.671 246.842 191.673 246.774 191.689 246.708C191.704 246.643 191.733 246.582 191.772 246.527C191.812 246.473 191.863 246.428 191.92 246.394C191.978 246.36 192.042 246.338 192.109 246.329C193.439 246.126 194.779 245.913 196.108 245.69C196.174 245.678 196.241 245.68 196.305 245.695C196.37 245.709 196.431 245.737 196.485 245.776C196.539 245.815 196.585 245.864 196.619 245.92C196.654 245.977 196.677 246.04 196.687 246.106C196.7 246.171 196.7 246.238 196.686 246.302C196.673 246.367 196.646 246.428 196.608 246.482C196.57 246.537 196.521 246.582 196.465 246.617C196.409 246.652 196.346 246.675 196.281 246.685C194.941 246.918 193.601 247.131 192.221 247.334H192.18ZM139.613 247.253H139.532C138.192 247.04 136.852 246.806 135.523 246.563C135.456 246.551 135.393 246.526 135.336 246.489C135.279 246.453 135.229 246.405 135.191 246.349C135.152 246.294 135.125 246.231 135.11 246.165C135.096 246.099 135.095 246.03 135.107 245.964C135.119 245.897 135.144 245.834 135.18 245.777C135.217 245.72 135.264 245.67 135.32 245.632C135.376 245.593 135.438 245.566 135.504 245.551C135.571 245.537 135.639 245.536 135.706 245.548C137.035 245.801 138.365 246.025 139.694 246.238C139.761 246.243 139.826 246.262 139.886 246.292C139.945 246.322 139.998 246.364 140.041 246.415C140.085 246.466 140.118 246.525 140.138 246.589C140.159 246.652 140.167 246.719 140.161 246.786C140.156 246.853 140.138 246.918 140.107 246.977C140.077 247.037 140.035 247.09 139.984 247.133C139.933 247.176 139.874 247.209 139.811 247.23C139.747 247.25 139.68 247.258 139.613 247.253ZM200.188 245.964C200.054 245.977 199.919 245.937 199.815 245.851C199.71 245.765 199.644 245.642 199.63 245.507C199.617 245.373 199.657 245.238 199.743 245.133C199.829 245.029 199.952 244.962 200.087 244.949C201.417 244.685 202.746 244.411 204.056 244.127C204.19 244.097 204.331 244.122 204.447 244.196C204.563 244.271 204.645 244.388 204.675 244.523C204.704 244.657 204.679 244.798 204.605 244.914C204.531 245.03 204.414 245.112 204.279 245.142L200.29 245.964H200.188ZM131.646 245.761H131.534C130.204 245.477 128.885 245.172 127.565 244.847C127.501 244.832 127.44 244.804 127.387 244.765C127.334 244.726 127.289 244.676 127.255 244.62C127.221 244.563 127.198 244.5 127.189 244.434C127.179 244.369 127.183 244.302 127.2 244.238C127.231 244.108 127.313 243.995 127.427 243.925C127.541 243.855 127.678 243.832 127.809 243.863C129.118 244.188 130.428 244.482 131.747 244.766C131.812 244.781 131.874 244.808 131.929 244.846C131.984 244.885 132.031 244.934 132.067 244.99C132.103 245.047 132.127 245.11 132.138 245.176C132.15 245.242 132.148 245.31 132.133 245.375C132.106 245.49 132.04 245.593 131.945 245.663C131.85 245.734 131.733 245.769 131.615 245.761H131.646ZM208.075 244.228C207.962 244.229 207.852 244.191 207.764 244.121C207.675 244.051 207.613 243.953 207.588 243.842C207.571 243.778 207.567 243.711 207.577 243.644C207.586 243.578 207.608 243.515 207.642 243.457C207.676 243.4 207.721 243.349 207.774 243.309C207.828 243.269 207.889 243.24 207.953 243.223C209.273 242.899 210.582 242.56 211.881 242.208C212.01 242.174 212.148 242.192 212.264 242.259C212.38 242.325 212.465 242.435 212.5 242.564C212.532 242.694 212.513 242.832 212.447 242.949C212.381 243.065 212.273 243.153 212.145 243.193C210.836 243.538 209.516 243.873 208.197 244.208L208.075 244.228ZM123.718 243.842H123.576C122.267 243.477 120.968 243.102 119.669 242.706C119.534 242.665 119.421 242.573 119.354 242.449C119.288 242.326 119.273 242.181 119.313 242.046C119.354 241.911 119.446 241.798 119.57 241.732C119.693 241.665 119.838 241.65 119.973 241.691C121.252 242.087 122.551 242.462 123.85 242.817C123.98 242.855 124.09 242.942 124.156 243.06C124.222 243.177 124.24 243.316 124.206 243.447C124.181 243.554 124.123 243.651 124.039 243.723C123.954 243.794 123.849 243.836 123.739 243.842H123.718ZM215.921 242.107C215.786 242.126 215.65 242.09 215.541 242.008C215.433 241.927 215.361 241.805 215.342 241.67C215.324 241.536 215.359 241.399 215.441 241.291C215.523 241.182 215.644 241.111 215.779 241.092C217.078 240.716 218.367 240.31 219.646 239.904C219.713 239.884 219.783 239.876 219.852 239.883C219.922 239.889 219.989 239.909 220.051 239.942C220.113 239.974 220.167 240.019 220.212 240.072C220.257 240.126 220.29 240.188 220.311 240.254C220.331 240.321 220.339 240.391 220.332 240.461C220.326 240.53 220.306 240.598 220.273 240.659C220.241 240.721 220.197 240.776 220.143 240.82C220.089 240.865 220.027 240.899 219.961 240.919C218.672 241.335 217.372 241.731 216.063 242.117C216.022 242.121 215.981 242.118 215.941 242.107H215.921ZM115.964 241.457C115.91 241.467 115.855 241.467 115.801 241.457C114.512 241.021 113.233 240.554 111.975 240.077C111.864 240.02 111.777 239.924 111.732 239.808C111.687 239.692 111.687 239.563 111.731 239.446C111.775 239.329 111.86 239.233 111.971 239.175C112.081 239.117 112.209 239.102 112.33 239.133C113.589 239.6 114.847 240.057 116.126 240.493C116.253 240.539 116.357 240.633 116.415 240.754C116.474 240.875 116.483 241.015 116.441 241.143C116.405 241.234 116.342 241.313 116.26 241.37C116.179 241.426 116.083 241.456 115.984 241.457H115.964ZM223.655 239.61C223.551 239.611 223.448 239.58 223.363 239.52C223.277 239.46 223.212 239.374 223.178 239.275C223.136 239.147 223.145 239.008 223.204 238.886C223.262 238.765 223.366 238.671 223.493 238.625C224.772 238.179 226.041 237.712 227.299 237.235C227.361 237.211 227.427 237.199 227.494 237.201C227.56 237.202 227.626 237.217 227.686 237.245C227.747 237.272 227.801 237.312 227.846 237.36C227.891 237.409 227.926 237.467 227.949 237.529C227.973 237.592 227.985 237.659 227.983 237.726C227.982 237.793 227.967 237.859 227.939 237.921C227.912 237.982 227.873 238.037 227.824 238.083C227.775 238.129 227.717 238.165 227.654 238.189C226.396 238.666 225.117 239.133 223.828 239.59C223.779 239.605 223.727 239.611 223.676 239.61H223.655ZM108.382 238.595C108.318 238.609 108.252 238.609 108.189 238.595C106.93 238.067 105.672 237.519 104.454 236.971C104.393 236.943 104.338 236.902 104.293 236.853C104.247 236.803 104.212 236.745 104.19 236.682C104.167 236.619 104.157 236.551 104.161 236.484C104.164 236.417 104.181 236.351 104.21 236.291C104.237 236.23 104.277 236.176 104.325 236.131C104.374 236.085 104.431 236.05 104.494 236.028C104.556 236.005 104.622 235.995 104.689 235.998C104.755 236.002 104.82 236.018 104.88 236.047C106.088 236.595 107.326 237.144 108.575 237.661C108.637 237.686 108.693 237.722 108.741 237.769C108.788 237.816 108.826 237.871 108.851 237.933C108.877 237.995 108.89 238.061 108.889 238.127C108.889 238.194 108.875 238.26 108.849 238.321C108.807 238.402 108.742 238.471 108.663 238.517C108.584 238.564 108.494 238.587 108.402 238.585L108.382 238.595ZM231.258 236.727C231.157 236.73 231.058 236.701 230.974 236.644C230.891 236.588 230.826 236.507 230.791 236.413C230.764 236.352 230.75 236.286 230.75 236.219C230.75 236.152 230.762 236.086 230.788 236.025C230.814 235.963 230.851 235.907 230.899 235.861C230.946 235.814 231.003 235.777 231.065 235.753C232.313 235.235 233.552 234.738 234.78 234.159C234.841 234.133 234.907 234.118 234.974 234.117C235.041 234.115 235.107 234.127 235.17 234.152C235.232 234.177 235.289 234.213 235.337 234.26C235.385 234.306 235.423 234.362 235.45 234.423C235.502 234.546 235.505 234.684 235.457 234.809C235.41 234.934 235.316 235.036 235.196 235.093C233.958 235.641 232.709 236.169 231.45 236.697C231.394 236.711 231.336 236.718 231.278 236.717L231.258 236.727ZM101.033 235.215C100.956 235.213 100.88 235.195 100.81 235.164C99.5918 234.555 98.384 233.916 97.2066 233.266C97.1478 233.234 97.0959 233.191 97.0539 233.139C97.0119 233.087 96.9805 233.027 96.9616 232.963C96.9428 232.899 96.9368 232.832 96.944 232.765C96.9512 232.699 96.9714 232.635 97.0036 232.576C97.0699 232.459 97.1789 232.373 97.3076 232.335C97.4364 232.297 97.5749 232.311 97.6938 232.373C98.861 233.023 100.059 233.652 101.267 234.251C101.385 234.315 101.474 234.423 101.516 234.551C101.557 234.68 101.548 234.819 101.49 234.941C101.446 235.024 101.38 235.093 101.299 235.141C101.219 235.19 101.127 235.215 101.033 235.215V235.215ZM238.698 233.429C238.602 233.431 238.508 233.406 238.426 233.355C238.345 233.305 238.281 233.231 238.241 233.144C238.211 233.084 238.194 233.019 238.19 232.953C238.186 232.886 238.195 232.819 238.216 232.756C238.238 232.693 238.272 232.634 238.316 232.584C238.361 232.534 238.414 232.494 238.474 232.464C239.692 231.876 240.9 231.277 242.098 230.658C242.218 230.596 242.357 230.584 242.486 230.625C242.614 230.666 242.721 230.756 242.783 230.876C242.845 230.996 242.857 231.135 242.816 231.264C242.775 231.392 242.685 231.499 242.565 231.561C241.357 232.18 240.149 232.789 238.911 233.378C238.845 233.41 238.771 233.424 238.698 233.418V233.429ZM93.9383 231.297C93.8445 231.295 93.7532 231.267 93.6744 231.216C92.5071 230.516 91.35 229.785 90.2234 229.044C90.1121 228.969 90.0348 228.854 90.0082 228.723C89.9815 228.592 90.0078 228.455 90.0813 228.343C90.1172 228.287 90.164 228.239 90.219 228.201C90.274 228.164 90.336 228.137 90.4013 228.124C90.4667 228.111 90.534 228.111 90.5993 228.124C90.6647 228.137 90.7267 228.164 90.7816 228.201C91.8981 228.932 93.0451 229.653 94.2022 230.353C94.3157 230.423 94.3974 230.534 94.4296 230.663C94.4619 230.792 94.4422 230.929 94.3747 231.043C94.3297 231.119 94.2659 231.183 94.1895 231.227C94.1131 231.271 94.0266 231.296 93.9383 231.297ZM245.904 229.683C245.814 229.682 245.726 229.659 245.648 229.614C245.57 229.57 245.504 229.506 245.457 229.43C245.395 229.311 245.382 229.172 245.419 229.043C245.457 228.915 245.544 228.806 245.66 228.739C246.838 228.08 248.005 227.399 249.152 226.709C249.209 226.675 249.273 226.652 249.339 226.642C249.405 226.631 249.473 226.635 249.538 226.651C249.603 226.667 249.664 226.695 249.718 226.735C249.772 226.775 249.818 226.825 249.852 226.882C249.887 226.939 249.91 227.003 249.92 227.069C249.93 227.135 249.927 227.203 249.911 227.268C249.895 227.333 249.866 227.394 249.827 227.448C249.787 227.502 249.737 227.548 249.68 227.582C248.523 228.259 247.345 228.936 246.148 229.612C246.074 229.656 245.99 229.681 245.904 229.683V229.683ZM87.1682 226.821C87.0632 226.82 86.9607 226.789 86.8739 226.73C85.7641 225.924 84.6781 225.102 83.6157 224.263C83.5112 224.179 83.4439 224.058 83.4287 223.925C83.4135 223.792 83.4516 223.658 83.5345 223.553C83.6215 223.45 83.7447 223.384 83.8787 223.369C84.0127 223.354 84.1474 223.39 84.2552 223.471C85.2702 224.304 86.3765 225.116 87.4626 225.907C87.5175 225.946 87.5642 225.995 87.6001 226.051C87.6359 226.108 87.6602 226.171 87.6715 226.237C87.6829 226.303 87.681 226.371 87.666 226.436C87.6511 226.502 87.6233 226.563 87.5844 226.618C87.5355 226.682 87.4725 226.733 87.4003 226.769C87.328 226.804 87.2486 226.822 87.1682 226.821ZM80.8143 221.746C80.6919 221.745 80.5735 221.702 80.4794 221.624C79.5659 220.822 78.6524 220 77.7795 219.178L77.4648 218.873C77.4176 218.827 77.38 218.772 77.3544 218.711C77.3288 218.65 77.3156 218.584 77.3156 218.518C77.3156 218.452 77.3288 218.387 77.3544 218.326C77.38 218.265 77.4176 218.209 77.4648 218.163C77.512 218.115 77.5681 218.078 77.63 218.052C77.6918 218.026 77.7582 218.013 77.8252 218.013C77.8922 218.013 77.9585 218.026 78.0203 218.052C78.0822 218.078 78.1383 218.115 78.1855 218.163L78.49 218.457C79.3629 219.28 80.2561 220.091 81.1696 220.873C81.2488 220.941 81.3052 221.031 81.3312 221.132C81.3572 221.233 81.3515 221.339 81.315 221.437C81.2784 221.535 81.2127 221.618 81.1267 221.677C81.0408 221.736 80.9388 221.767 80.8346 221.766L80.8143 221.746ZM74.9273 216.163C74.7902 216.163 74.6587 216.108 74.5619 216.011C73.6078 214.996 72.674 213.981 71.7808 213.027C71.7336 212.981 71.696 212.926 71.6704 212.865C71.6448 212.804 71.6316 212.738 71.6316 212.672C71.6316 212.606 71.6448 212.54 71.6704 212.479C71.696 212.418 71.7336 212.363 71.7808 212.317C71.828 212.269 71.8841 212.231 71.946 212.206C72.0078 212.18 72.0742 212.166 72.1412 212.166C72.2081 212.166 72.2745 212.18 72.3363 212.206C72.3982 212.231 72.4543 212.269 72.5015 212.317C73.3947 213.332 74.3183 214.347 75.2623 215.27C75.3098 215.317 75.3476 215.374 75.3734 215.435C75.3991 215.497 75.4124 215.564 75.4124 215.631C75.4124 215.698 75.3991 215.764 75.3734 215.826C75.3476 215.888 75.3098 215.944 75.2623 215.991C75.1812 216.101 75.0617 216.177 74.9273 216.204V216.163ZM69.5072 210.073C69.4311 210.072 69.3562 210.055 69.2878 210.021C69.2194 209.988 69.1591 209.94 69.1114 209.881C68.2385 208.866 67.396 207.749 66.584 206.683C66.5058 206.575 66.4727 206.44 66.4917 206.308C66.5106 206.175 66.5801 206.055 66.6855 205.973C66.7932 205.892 66.9286 205.857 67.0618 205.876C67.195 205.895 67.3153 205.967 67.396 206.074C68.1979 207.089 69.0403 208.196 69.8929 209.241C69.9365 209.291 69.9695 209.35 69.99 209.413C70.0106 209.476 70.0182 209.543 70.0125 209.609C70.0069 209.676 69.988 209.74 69.957 209.799C69.926 209.858 69.8835 209.91 69.832 209.952C69.7555 210.062 69.6391 210.139 69.5072 210.165V210.073ZM64.6251 203.588C64.5426 203.588 64.4615 203.567 64.3888 203.528C64.3162 203.49 64.2544 203.433 64.2089 203.364C63.4375 202.238 62.6864 201.081 61.9861 199.934C61.9291 199.82 61.9169 199.689 61.9518 199.567C61.9868 199.444 62.0664 199.34 62.1749 199.273C62.2834 199.207 62.4129 199.184 62.5377 199.208C62.6625 199.233 62.7735 199.303 62.8488 199.406C63.539 200.532 64.28 201.679 65.0412 202.796C65.0794 202.85 65.1063 202.912 65.1204 202.977C65.1344 203.042 65.1353 203.109 65.123 203.174C65.1107 203.239 65.0855 203.301 65.0488 203.357C65.0121 203.412 64.9646 203.46 64.9093 203.496C64.84 203.59 64.7389 203.655 64.6251 203.679V203.588ZM60.3824 196.675C60.2913 196.675 60.2021 196.65 60.1236 196.603C60.0452 196.557 59.9804 196.491 59.9358 196.412C59.276 195.214 58.6467 193.986 58.058 192.778C58.0289 192.717 58.0121 192.652 58.0086 192.584C58.0052 192.517 58.015 192.45 58.0377 192.387C58.0604 192.324 58.0954 192.266 58.1407 192.216C58.186 192.166 58.2407 192.126 58.3016 192.098C58.3608 192.069 58.4253 192.051 58.4912 192.047C58.5571 192.043 58.6232 192.052 58.6855 192.074C58.7479 192.096 58.8053 192.13 58.8544 192.174C58.9035 192.218 58.9433 192.272 58.9715 192.331C59.5501 193.529 60.1794 194.737 60.8188 195.924C60.8526 195.981 60.8744 196.044 60.8829 196.11C60.8915 196.176 60.8866 196.242 60.8685 196.306C60.8505 196.369 60.8197 196.429 60.778 196.48C60.7363 196.531 60.6846 196.574 60.626 196.604C60.5653 196.684 60.4795 196.742 60.3824 196.767V196.675ZM56.84 189.449C56.7381 189.45 56.6381 189.421 56.553 189.365C56.4679 189.309 56.4017 189.228 56.363 189.134C55.8453 187.886 55.348 186.597 54.9014 185.328C54.86 185.202 54.8691 185.066 54.9269 184.947C54.9846 184.828 55.0865 184.736 55.2107 184.691C55.3349 184.647 55.4718 184.652 55.5922 184.706C55.7126 184.761 55.807 184.86 55.8555 184.983C56.3021 186.241 56.7893 187.51 57.3069 188.748C57.3548 188.872 57.353 189.01 57.302 189.133C57.2509 189.256 57.1546 189.354 57.0329 189.408C56.9722 189.435 56.9065 189.449 56.84 189.449ZM54.1401 181.796C54.0299 181.797 53.9222 181.762 53.8341 181.696C53.7459 181.63 53.6822 181.536 53.6529 181.43C53.2774 180.121 52.9323 178.791 52.6379 177.472C52.623 177.406 52.6211 177.339 52.6324 177.273C52.6437 177.207 52.668 177.143 52.7039 177.087C52.7397 177.03 52.7864 176.981 52.8413 176.943C52.8962 176.904 52.9582 176.877 53.0236 176.863C53.1541 176.835 53.29 176.861 53.4021 176.933C53.5141 177.005 53.5933 177.118 53.6225 177.248C53.9168 178.548 54.2518 179.857 54.6375 181.146C54.6561 181.21 54.662 181.277 54.6548 181.343C54.6475 181.409 54.6273 181.474 54.5953 181.532C54.5632 181.591 54.52 181.642 54.468 181.684C54.416 181.726 54.3564 181.757 54.2924 181.775C54.25 181.79 54.2053 181.797 54.1604 181.796H54.1401ZM52.3639 173.879C52.2422 173.88 52.1241 173.838 52.0309 173.76C51.9378 173.681 51.8758 173.572 51.8564 173.452C51.6432 172.102 51.4707 170.742 51.3387 169.392C51.3266 169.258 51.3685 169.124 51.4551 169.02C51.5417 168.916 51.666 168.851 51.8006 168.839C51.9352 168.827 52.069 168.869 52.1728 168.955C52.2765 169.042 52.3416 169.166 52.3537 169.301C52.4857 170.62 52.6582 171.96 52.8714 173.29C52.883 173.356 52.8815 173.424 52.8668 173.489C52.8522 173.554 52.8247 173.616 52.786 173.671C52.7473 173.726 52.6982 173.772 52.6414 173.808C52.5846 173.843 52.5213 173.868 52.4552 173.879H52.3639ZM51.5823 165.809C51.4502 165.807 51.3241 165.754 51.2298 165.661C51.1354 165.569 51.08 165.444 51.0748 165.312C51.0748 164.642 51.0748 163.972 51.0748 163.282C51.0748 162.592 51.0748 161.881 51.0748 161.191C51.0761 161.124 51.0909 161.058 51.1184 160.997C51.1458 160.935 51.1854 160.88 51.2348 160.835C51.2841 160.789 51.3421 160.754 51.4053 160.732C51.4685 160.709 51.5356 160.7 51.6026 160.704C51.7355 160.709 51.8609 160.766 51.952 160.863C52.0431 160.96 52.0926 161.089 52.0898 161.222C52.0898 161.902 52.0898 162.592 52.0898 163.252C52.0898 163.911 52.0898 164.561 52.0898 165.221C52.0925 165.288 52.0818 165.355 52.0581 165.419C52.0345 165.482 51.9984 165.54 51.9521 165.589C51.9058 165.638 51.8501 165.678 51.7884 165.705C51.7266 165.732 51.66 165.747 51.5925 165.748L51.5823 165.809ZM51.8564 157.689C51.79 157.684 51.7254 157.666 51.6663 157.635C51.6072 157.605 51.5547 157.563 51.5122 157.512C51.4696 157.461 51.4377 157.402 51.4183 157.338C51.399 157.274 51.3926 157.207 51.3996 157.141C51.5417 155.781 51.7244 154.411 51.9579 153.081C51.9677 153.016 51.9906 152.952 52.0252 152.896C52.0598 152.839 52.1054 152.79 52.1593 152.751C52.2133 152.712 52.2744 152.685 52.3392 152.67C52.4039 152.655 52.471 152.653 52.5364 152.665C52.6025 152.676 52.6658 152.7 52.7226 152.736C52.7794 152.771 52.8285 152.818 52.8672 152.873C52.9059 152.927 52.9334 152.989 52.948 153.055C52.9627 153.12 52.9642 153.188 52.9526 153.254C52.7293 154.563 52.5466 155.903 52.4146 157.243C52.3971 157.372 52.3325 157.49 52.2332 157.574C52.1339 157.659 52.0069 157.703 51.8767 157.699L51.8564 157.689ZM53.2266 149.691H53.1048C53.0401 149.675 52.9793 149.645 52.9259 149.605C52.8725 149.565 52.8275 149.515 52.7936 149.457C52.7596 149.4 52.7374 149.336 52.7281 149.27C52.7188 149.204 52.7226 149.137 52.7394 149.072C53.0541 147.742 53.4296 146.423 53.8458 145.134C53.8876 145.006 53.9784 144.9 54.0983 144.839C54.2182 144.778 54.3574 144.767 54.4852 144.809C54.5481 144.829 54.6065 144.86 54.657 144.903C54.7075 144.945 54.749 144.997 54.7792 145.056C54.8094 145.114 54.8277 145.178 54.833 145.244C54.8383 145.31 54.8305 145.376 54.81 145.438C54.404 146.707 54.0386 148.006 53.724 149.316C53.6974 149.423 53.6365 149.519 53.5503 149.589C53.4642 149.658 53.3576 149.698 53.2469 149.701L53.2266 149.691ZM55.7134 141.967C55.65 141.982 55.5839 141.982 55.5205 141.967C55.4585 141.942 55.402 141.906 55.3541 141.859C55.3062 141.813 55.268 141.757 55.2416 141.696C55.2152 141.635 55.2012 141.569 55.2003 141.502C55.1993 141.435 55.2116 141.369 55.2363 141.307C55.7438 140.049 56.3122 138.79 56.9111 137.572C56.935 137.504 56.9729 137.442 57.0225 137.391C57.072 137.339 57.132 137.298 57.1985 137.271C57.265 137.244 57.3364 137.231 57.4082 137.234C57.4799 137.236 57.5502 137.254 57.6146 137.286C57.6789 137.318 57.7358 137.363 57.7814 137.418C57.827 137.474 57.8604 137.538 57.8793 137.607C57.8981 137.677 57.9021 137.749 57.891 137.82C57.8798 137.891 57.8537 137.959 57.8144 138.019C57.2359 139.216 56.6776 140.444 56.1803 141.693C56.1383 141.776 56.0747 141.846 55.9961 141.896C55.9175 141.946 55.8268 141.974 55.7337 141.977L55.7134 141.967ZM59.3065 134.73C59.2169 134.731 59.129 134.706 59.0527 134.659C58.9947 134.626 58.9437 134.582 58.903 134.53C58.8622 134.477 58.8324 134.417 58.8154 134.353C58.7983 134.288 58.7944 134.221 58.8038 134.155C58.8132 134.089 58.8357 134.026 58.87 133.969C59.5602 132.802 60.2809 131.634 61.032 130.497C61.1113 130.399 61.2245 130.334 61.3495 130.314C61.4744 130.295 61.6021 130.323 61.7075 130.393C61.8129 130.463 61.8885 130.569 61.9194 130.692C61.9502 130.815 61.9342 130.944 61.8744 131.056C61.1436 132.172 60.423 133.329 59.7429 134.476C59.6986 134.553 59.6351 134.617 59.5585 134.661C59.4819 134.706 59.395 134.729 59.3065 134.73ZM63.7826 127.95C63.6725 127.952 63.5649 127.916 63.4781 127.848C63.3718 127.769 63.3005 127.652 63.2797 127.521C63.2588 127.39 63.29 127.256 63.3665 127.148C64.1785 126.052 65.0209 124.966 65.8837 123.92C65.9251 123.868 65.9765 123.825 66.0349 123.793C66.0934 123.761 66.1576 123.741 66.2239 123.734C66.2902 123.728 66.3571 123.735 66.4207 123.754C66.4843 123.774 66.5433 123.806 66.5942 123.849C66.6972 123.934 66.7625 124.057 66.7758 124.19C66.7891 124.323 66.7494 124.456 66.6652 124.56C65.8126 125.575 64.9803 126.661 64.1886 127.747C64.1378 127.804 64.0751 127.849 64.0049 127.878C63.9347 127.908 63.8588 127.922 63.7826 127.919V127.95ZM68.9287 121.677C68.8669 121.678 68.8055 121.667 68.748 121.645C68.6905 121.622 68.6381 121.588 68.5937 121.545C68.5462 121.498 68.5084 121.442 68.4826 121.38C68.4569 121.318 68.4436 121.252 68.4436 121.185C68.4436 121.118 68.4569 121.052 68.4826 120.99C68.5084 120.928 68.5462 120.872 68.5937 120.825C69.5072 119.81 70.4715 118.795 71.4357 117.891C71.482 117.844 71.5373 117.806 71.5983 117.781C71.6593 117.755 71.7248 117.742 71.791 117.742C71.8571 117.742 71.9226 117.755 71.9836 117.781C72.0446 117.806 72.0999 117.844 72.1462 117.891C72.1938 117.938 72.2316 117.994 72.2573 118.056C72.2831 118.118 72.2963 118.184 72.2963 118.251C72.2963 118.318 72.2831 118.385 72.2573 118.447C72.2316 118.508 72.1938 118.565 72.1462 118.612C71.1921 119.535 70.2482 120.51 69.3347 121.505C69.282 121.557 69.2181 121.597 69.1478 121.622C69.0776 121.646 69.0027 121.655 68.9287 121.647V121.677ZM74.7345 116.003C74.6631 116.004 74.5924 115.989 74.5275 115.959C74.4626 115.929 74.4051 115.885 74.3589 115.831C74.3117 115.784 74.2741 115.729 74.2485 115.668C74.2229 115.607 74.2097 115.542 74.2097 115.475C74.2097 115.409 74.2229 115.344 74.2485 115.283C74.2741 115.222 74.3117 115.167 74.3589 115.12C75.3739 114.217 76.4498 113.344 77.5156 112.512C77.6241 112.447 77.7524 112.425 77.8764 112.448C78.0003 112.472 78.1114 112.54 78.1886 112.64C78.2659 112.74 78.3041 112.864 78.2961 112.99C78.288 113.116 78.2343 113.235 78.1449 113.324C77.1299 114.136 76.0438 114.998 75.0288 115.881C74.9426 115.942 74.8397 115.974 74.7345 115.973V116.003ZM159.081 114.4C158.989 114.399 158.898 114.373 158.82 114.325C158.741 114.276 158.677 114.207 158.634 114.126C157.97 112.988 157.18 111.929 156.28 110.969C156.189 110.868 156.143 110.735 156.151 110.6C156.158 110.465 156.219 110.338 156.32 110.248C156.421 110.158 156.554 110.112 156.689 110.119C156.824 110.127 156.951 110.188 157.041 110.289C158.001 111.309 158.836 112.44 159.528 113.659C159.559 113.717 159.579 113.781 159.585 113.847C159.591 113.913 159.584 113.98 159.565 114.044C159.545 114.107 159.512 114.166 159.469 114.216C159.426 114.267 159.374 114.309 159.314 114.339C159.24 114.369 159.16 114.379 159.081 114.369V114.4ZM81.2 110.999C81.1172 111.001 81.0354 110.982 80.9624 110.943C80.8894 110.904 80.8279 110.846 80.7839 110.776C80.7457 110.722 80.7188 110.66 80.7047 110.595C80.6907 110.53 80.6898 110.463 80.7021 110.398C80.7144 110.333 80.7396 110.271 80.7763 110.215C80.813 110.16 80.8605 110.112 80.9158 110.076C82.0323 109.304 83.1894 108.563 84.3465 107.863C84.4033 107.827 84.467 107.802 84.5335 107.791C84.6001 107.78 84.6682 107.783 84.7338 107.799C84.7993 107.815 84.8608 107.844 84.9146 107.885C84.9685 107.926 85.0135 107.977 85.0469 108.036C85.0819 108.093 85.1052 108.156 85.1154 108.223C85.1257 108.289 85.1227 108.357 85.1067 108.422C85.0906 108.487 85.0618 108.548 85.022 108.602C84.9821 108.656 84.9319 108.701 84.8743 108.736C83.7274 109.416 82.5906 110.157 81.4842 110.908C81.4017 110.968 81.3021 111 81.2 110.999V110.999ZM153.732 108.34C153.613 108.34 153.497 108.296 153.407 108.218C152.379 107.367 151.301 106.577 150.179 105.853C150.123 105.817 150.075 105.769 150.038 105.714C150 105.659 149.973 105.597 149.96 105.531C149.946 105.466 149.945 105.398 149.958 105.332C149.97 105.266 149.996 105.204 150.032 105.148C150.069 105.092 150.116 105.044 150.172 105.006C150.227 104.968 150.289 104.942 150.354 104.928C150.42 104.914 150.488 104.914 150.553 104.926C150.619 104.939 150.682 104.964 150.738 105.001C151.891 105.751 152.999 106.568 154.057 107.447C154.135 107.514 154.191 107.603 154.218 107.703C154.244 107.803 154.239 107.909 154.204 108.006C154.169 108.103 154.104 108.187 154.02 108.247C153.936 108.306 153.835 108.339 153.732 108.34V108.34ZM88.102 106.818C88.0082 106.818 87.9161 106.792 87.8357 106.744C87.7552 106.695 87.6894 106.626 87.6453 106.543C87.5843 106.425 87.5725 106.287 87.6124 106.16C87.6523 106.032 87.7407 105.926 87.8584 105.863C89.0561 105.234 90.2944 104.635 91.5429 104.077C91.6033 104.048 91.6689 104.032 91.7357 104.03C91.8026 104.027 91.8692 104.038 91.9318 104.061C91.9943 104.085 92.0514 104.121 92.0997 104.167C92.148 104.214 92.1864 104.269 92.2128 104.331C92.265 104.454 92.2678 104.592 92.2205 104.717C92.1732 104.842 92.0795 104.943 91.959 105.001C90.7309 105.549 89.5129 106.137 88.3355 106.757C88.2638 106.796 88.1837 106.817 88.102 106.818ZM146.972 103.894C146.894 103.893 146.817 103.872 146.749 103.833C145.581 103.255 144.343 102.707 143.085 102.22C142.96 102.172 142.859 102.077 142.804 101.955C142.749 101.834 142.744 101.695 142.79 101.57C142.814 101.507 142.85 101.449 142.896 101.4C142.942 101.352 142.997 101.312 143.059 101.285C143.12 101.257 143.186 101.243 143.253 101.241C143.321 101.239 143.387 101.251 143.45 101.276C144.739 101.773 146.008 102.291 147.205 102.93C147.325 102.991 147.416 103.097 147.457 103.224C147.499 103.351 147.489 103.49 147.429 103.61C147.383 103.701 147.311 103.777 147.223 103.827C147.135 103.878 147.033 103.901 146.931 103.894H146.972ZM95.542 103.488C95.4392 103.488 95.3389 103.456 95.254 103.399C95.169 103.341 95.1032 103.259 95.0649 103.164C95.0406 103.102 95.029 103.035 95.0307 102.969C95.0324 102.903 95.0474 102.837 95.0749 102.777C95.1023 102.716 95.1416 102.662 95.1905 102.616C95.2393 102.571 95.2967 102.536 95.3593 102.514C96.628 102.027 97.9272 101.58 99.2264 101.174C99.2897 101.152 99.3567 101.144 99.4234 101.149C99.49 101.154 99.5549 101.173 99.6139 101.205C99.673 101.236 99.7249 101.279 99.7665 101.332C99.8081 101.384 99.8385 101.444 99.8557 101.509C99.876 101.572 99.8834 101.639 99.8774 101.705C99.8715 101.771 99.8523 101.836 99.8211 101.894C99.7899 101.953 99.7472 102.005 99.6956 102.047C99.6441 102.089 99.5846 102.12 99.5208 102.138C98.252 102.544 96.963 102.981 95.7145 103.458C95.6467 103.484 95.5738 103.495 95.5014 103.488H95.542ZM103.276 101.062C103.142 101.079 103.006 101.041 102.9 100.957C102.793 100.873 102.724 100.75 102.708 100.616C102.692 100.481 102.73 100.346 102.813 100.239C102.897 100.133 103.02 100.064 103.154 100.047C104.464 99.7125 105.804 99.4182 107.143 99.1644C107.209 99.1511 107.276 99.1507 107.341 99.1634C107.407 99.1761 107.469 99.2015 107.525 99.2383C107.58 99.275 107.628 99.3224 107.666 99.3776C107.703 99.4329 107.729 99.4949 107.742 99.5603C107.766 99.6933 107.737 99.8305 107.661 99.9424C107.585 100.054 107.469 100.132 107.336 100.159C106.017 100.413 104.697 100.707 103.398 101.032L103.276 101.062ZM139.41 100.971H139.278C138.02 100.616 136.71 100.291 135.371 100.017C135.305 100.004 135.243 99.9776 135.188 99.9403C135.133 99.903 135.085 99.8552 135.049 99.7996C135.012 99.744 134.986 99.6817 134.974 99.6162C134.961 99.5508 134.961 99.4835 134.975 99.4182C135.004 99.2876 135.083 99.1734 135.194 99.0996C135.306 99.0258 135.442 98.9981 135.574 99.0223C136.934 99.3065 138.273 99.6313 139.552 100.037C139.682 100.075 139.792 100.162 139.858 100.28C139.924 100.397 139.942 100.536 139.908 100.667C139.863 100.768 139.786 100.853 139.689 100.908C139.592 100.963 139.48 100.985 139.37 100.971H139.41ZM111.244 99.5298C111.177 99.5345 111.11 99.526 111.047 99.5048C110.984 99.4836 110.925 99.4501 110.875 99.4063C110.773 99.3178 110.71 99.1924 110.701 99.0578C110.692 98.9232 110.736 98.7904 110.825 98.6886C110.913 98.5867 111.038 98.5242 111.173 98.5148C112.513 98.3321 113.873 98.1799 115.233 98.0682C115.3 98.0629 115.367 98.0707 115.43 98.0913C115.494 98.1119 115.553 98.1448 115.604 98.1881C115.655 98.2315 115.696 98.2844 115.727 98.344C115.757 98.4035 115.776 98.4685 115.781 98.5351C115.786 98.6017 115.779 98.6688 115.758 98.7324C115.737 98.796 115.704 98.855 115.661 98.9059C115.618 98.9567 115.565 98.9986 115.505 99.029C115.446 99.0595 115.381 99.0779 115.314 99.0832C113.985 99.205 112.635 99.3471 111.315 99.5298H111.244ZM131.473 99.3471H131.402C130.113 99.1847 128.763 99.0426 127.403 98.9513C127.336 98.9474 127.271 98.9304 127.211 98.9012C127.151 98.872 127.097 98.8313 127.053 98.7813C127.008 98.7314 126.974 98.6731 126.953 98.61C126.931 98.5468 126.922 98.48 126.926 98.4133C126.936 98.2777 127 98.1517 127.102 98.0624C127.205 97.9732 127.338 97.9279 127.474 97.9363C128.854 98.0378 130.225 98.1697 131.534 98.3423C131.601 98.3463 131.666 98.3633 131.726 98.3925C131.786 98.4217 131.84 98.4625 131.884 98.5124C131.928 98.5624 131.962 98.6206 131.984 98.6837C132.006 98.7468 132.015 98.8136 132.011 98.8802C132.007 98.9468 131.99 99.0121 131.961 99.0721C131.931 99.1321 131.891 99.1858 131.841 99.2301C131.791 99.2744 131.733 99.3085 131.67 99.3303C131.606 99.3521 131.54 99.3613 131.473 99.3573V99.3471ZM119.293 98.8295C119.162 98.8296 119.036 98.7789 118.941 98.6881C118.847 98.5972 118.791 98.4733 118.785 98.3423C118.783 98.2083 118.832 98.0785 118.923 97.9801C119.013 97.8817 119.139 97.8223 119.273 97.8145C120.623 97.8145 122.003 97.7536 123.333 97.8145C123.466 97.8197 123.593 97.8766 123.686 97.9731C123.778 98.0696 123.83 98.1983 123.83 98.3321C123.829 98.3988 123.814 98.4645 123.788 98.5256C123.761 98.5866 123.722 98.6418 123.674 98.688C123.626 98.7342 123.569 98.7705 123.507 98.7947C123.445 98.819 123.379 98.8308 123.312 98.8295C121.983 98.8295 120.612 98.8295 119.252 98.8295H119.293Z" fill="#F2994A"/>
</svg>
